<svg width="57" height="53" viewBox="0 0 57 53" fill="none" xmlns="http://www.w3.org/2000/svg">
<mask id="path-1-inside-1_1_584" fill="white">
<path d="M0.960938 0H56.9609V46H0.960938V0Z"/>
</mask>
<path d="M0.960938 2H56.9609V-2H0.960938V2Z" fill="#1007FA" mask="url(#path-1-inside-1_1_584)"/>
<path d="M32.7099 14C32.7099 14.9946 32.3148 15.9484 31.6116 16.6517C30.9083 17.3549 29.9545 17.75 28.9599 17.75C27.9654 17.75 27.0115 17.3549 26.3083 16.6517C25.605 15.9484 25.2099 14.9946 25.2099 14C25.2099 13.0054 25.605 12.0516 26.3083 11.3483C27.0115 10.6451 27.9654 10.25 28.9599 10.25C29.9545 10.25 30.9083 10.6451 31.6116 11.3483C32.3148 12.0516 32.7099 13.0054 32.7099 14ZM21.4609 28.118C21.4931 26.1504 22.2973 24.2742 23.7001 22.894C25.103 21.5139 26.992 20.7405 28.9599 20.7405C30.9278 20.7405 32.8169 21.5139 34.2198 22.894C35.6226 24.2742 36.4268 26.1504 36.4589 28.118C33.9609 28.118 31.5481 28.1215 28.9599 28.118C26.2839 28.118 23.9609 28.118 21.4609 28.118Z" stroke="#1007FA" stroke-width="1.5" stroke-linecap="round" stroke-linejoin="round"/>
<path d="M12.0527 49.472C11.446 49.472 10.8813 49.3833 10.3587 49.206C9.84532 49.038 9.39732 48.8 9.01466 48.492C8.63199 48.1933 8.32866 47.834 8.10466 47.414C7.88999 47.0033 7.78266 46.5553 7.78266 46.07C7.78266 45.8927 7.79666 45.664 7.82466 45.384C7.85266 45.104 7.88999 44.782 7.93666 44.418C7.99266 44.054 8.05332 43.6667 8.11866 43.256L9.96666 43.508C9.87332 44.096 9.79866 44.6187 9.74266 45.076C9.68666 45.5333 9.65866 45.8553 9.65866 46.042C9.65866 46.3967 9.75666 46.7093 9.95266 46.98C10.1487 47.2507 10.424 47.4607 10.7787 47.61C11.1427 47.7687 11.5673 47.848 12.0527 47.848H16.0147C16.6213 47.848 17.074 47.694 17.3727 47.386C17.6713 47.078 17.8207 46.63 17.8207 46.042V45.51H19.6827V46.042C19.6827 46.714 19.5333 47.3067 19.2347 47.82C18.936 48.3333 18.5113 48.7347 17.9607 49.024C17.4193 49.3227 16.7707 49.472 16.0147 49.472H12.0527ZM17.2047 46C16.7753 46 16.36 45.9533 15.9587 45.86C15.5667 45.7667 15.1933 45.5987 14.8387 45.356L15.9027 44.012C16.052 44.1147 16.1827 44.194 16.2947 44.25C16.416 44.2967 16.5467 44.3293 16.6867 44.348C16.836 44.3667 17.0087 44.376 17.2047 44.376H20.2987V46H17.2047ZM20.2987 46V44.376C20.3453 44.376 20.3873 44.3947 20.4247 44.432C20.462 44.4693 20.49 44.5253 20.5087 44.6C20.5273 44.6747 20.5413 44.7633 20.5507 44.866C20.5693 44.9593 20.5787 45.0667 20.5787 45.188C20.5787 45.3093 20.5693 45.4213 20.5507 45.524C20.5413 45.6267 20.5273 45.7153 20.5087 45.79C20.49 45.8553 20.462 45.9067 20.4247 45.944C20.3873 45.9813 20.3453 46 20.2987 46ZM11.5767 52.356V50.76H13.3827V52.356H11.5767ZM14.1247 52.356V50.76H15.9307V52.356H14.1247ZM20.293 46V44.376H22.855L21.763 45.286V38.972H23.639V46H20.293ZM20.293 46C20.237 46 20.195 45.9813 20.167 45.944C20.1296 45.9067 20.1016 45.8553 20.083 45.79C20.055 45.7153 20.0363 45.6267 20.027 45.524C20.0176 45.4213 20.013 45.3093 20.013 45.188C20.013 45.02 20.0223 44.88 20.041 44.768C20.0596 44.6467 20.0923 44.5533 20.139 44.488C20.1763 44.4133 20.2276 44.376 20.293 44.376V46ZM21.763 48.982V47.386H23.639V48.982H21.763ZM27.7763 46V44.376H29.3723V46H27.7763ZM25.9143 46V36.102H27.7763V46H25.9143ZM29.3723 46V44.376C29.4283 44.376 29.4703 44.3947 29.4983 44.432C29.5356 44.4693 29.5636 44.5253 29.5823 44.6C29.6103 44.6747 29.629 44.7633 29.6383 44.866C29.6476 44.9593 29.6523 45.0667 29.6523 45.188C29.6523 45.3093 29.6476 45.4213 29.6383 45.524C29.629 45.6267 29.6103 45.7153 29.5823 45.79C29.5636 45.8553 29.5356 45.9067 29.4983 45.944C29.4703 45.9813 29.4283 46 29.3723 46ZM41.1171 46V44.376H42.6011V46H41.1171ZM29.3711 46C29.3151 46 29.2731 45.9813 29.2451 45.944C29.2078 45.9067 29.1798 45.8553 29.1611 45.79C29.1331 45.7153 29.1144 45.6267 29.1051 45.524C29.0958 45.4213 29.0911 45.3093 29.0911 45.188C29.0911 45.02 29.1004 44.88 29.1191 44.768C29.1378 44.6467 29.1704 44.5533 29.2171 44.488C29.2544 44.4133 29.3058 44.376 29.3711 44.376V46ZM37.6031 46C37.2204 46 36.8378 45.93 36.4551 45.79C36.0818 45.6407 35.7364 45.4213 35.4191 45.132L36.5671 43.942C36.7538 44.0913 36.9264 44.2033 37.0851 44.278C37.2531 44.3433 37.4258 44.376 37.6031 44.376H40.2211L39.2551 45.258V42.15C39.2551 42.0007 39.2364 41.7767 39.1991 41.478C39.1711 41.17 39.1244 40.8247 39.0591 40.442C39.0031 40.05 38.9331 39.6533 38.8491 39.252L40.6971 38.972C40.7624 39.308 40.8231 39.686 40.8791 40.106C40.9444 40.5167 41.0004 40.9087 41.0471 41.282C41.0938 41.646 41.1171 41.9353 41.1171 42.15V46H37.6031ZM29.3711 46V44.376H31.4151L30.9951 44.81V40.4H32.8711V46H29.3711ZM32.8711 46V44.376H34.0051C34.3038 44.376 34.5324 44.334 34.6911 44.25C34.8498 44.1567 34.9571 43.9747 35.0131 43.704C35.0784 43.424 35.1111 43.0087 35.1111 42.458V39.7H36.9871V42.458C36.9871 43.2887 36.8798 43.9653 36.6651 44.488C36.4598 45.0107 36.1378 45.3933 35.6991 45.636C35.2604 45.8787 34.6958 46 34.0051 46H32.8711ZM42.6011 46V44.376C42.6478 44.376 42.6898 44.3947 42.7271 44.432C42.7644 44.4693 42.7924 44.5253 42.8111 44.6C42.8298 44.6747 42.8438 44.7633 42.8531 44.866C42.8718 44.9593 42.8811 45.0667 42.8811 45.188C42.8811 45.3093 42.8718 45.4213 42.8531 45.524C42.8438 45.6267 42.8298 45.7153 42.8111 45.79C42.7924 45.8553 42.7644 45.9067 42.7271 45.944C42.6898 45.9813 42.6478 46 42.6011 46ZM42.6055 46V44.376H48.6255L47.9955 44.894V42.304C47.9955 41.744 47.8181 41.3193 47.4635 41.03C47.1181 40.7407 46.5675 40.596 45.8115 40.596C45.5968 40.596 45.3028 40.6147 44.9295 40.652C44.5561 40.68 44.1501 40.7267 43.7115 40.792L43.5295 39.308C43.9308 39.2147 44.3368 39.1353 44.7475 39.07C45.1675 39.0047 45.5781 38.972 45.9795 38.972C46.7448 38.972 47.4168 39.1073 47.9955 39.378C48.5741 39.6393 49.0268 40.0173 49.3535 40.512C49.6895 41.0067 49.8575 41.604 49.8575 42.304V46H42.6055ZM42.6055 46C42.5495 46 42.5075 45.9813 42.4795 45.944C42.4421 45.9067 42.4141 45.8553 42.3955 45.79C42.3675 45.7153 42.3488 45.6267 42.3395 45.524C42.3301 45.4213 42.3255 45.3093 42.3255 45.188C42.3255 45.02 42.3348 44.88 42.3535 44.768C42.3721 44.6467 42.4048 44.5533 42.4515 44.488C42.4888 44.4133 42.5401 44.376 42.6055 44.376V46Z" fill="#1007FA"/>
</svg>
