<svg width="57" height="52" viewBox="0 0 57 52" fill="none" xmlns="http://www.w3.org/2000/svg">
<mask id="path-1-inside-1_1_585" fill="white">
<path d="M0.960938 0.5H56.9609V45.5H0.960938V0.5Z"/>
</mask>
<path d="M0.960938 2.5H56.9609V-1.5H0.960938V2.5Z" fill="#1007FA" mask="url(#path-1-inside-1_1_585)"/>
<path d="M37.9609 20.5C37.9609 19.9033 37.7239 19.331 37.3019 18.909C36.88 18.4871 36.3077 18.25 35.7109 18.25H31.9609C31.9609 19.0456 31.6449 19.8087 31.0823 20.3713C30.5196 20.9339 29.7566 21.25 28.9609 21.25C28.1653 21.25 27.4022 20.9339 26.8396 20.3713C26.277 19.8087 25.9609 19.0456 25.9609 18.25H22.2109C21.6142 18.25 21.0419 18.4871 20.6199 18.909C20.198 19.331 19.9609 19.9033 19.9609 20.5M37.9609 20.5V26.5C37.9609 27.0967 37.7239 27.669 37.3019 28.091C36.88 28.5129 36.3077 28.75 35.7109 28.75H22.2109C21.6142 28.75 21.0419 28.5129 20.6199 28.091C20.198 27.669 19.9609 27.0967 19.9609 26.5V20.5M37.9609 20.5V17.5M19.9609 20.5V17.5M37.9609 17.5C37.9609 16.9033 37.7239 16.331 37.3019 15.909C36.88 15.4871 36.3077 15.25 35.7109 15.25H22.2109C21.6142 15.25 21.0419 15.4871 20.6199 15.909C20.198 16.331 19.9609 16.9033 19.9609 17.5M37.9609 17.5V14.5C37.9609 13.9033 37.7239 13.331 37.3019 12.909C36.88 12.4871 36.3077 12.25 35.7109 12.25H22.2109C21.6142 12.25 21.0419 12.4871 20.6199 12.909C20.198 13.331 19.9609 13.9033 19.9609 14.5V17.5" stroke="#1007FA" stroke-width="1.5" stroke-linecap="round" stroke-linejoin="round"/>
<path d="M7.64272 48.724C7.07938 48.724 6.55505 48.6417 6.06971 48.477C5.59305 48.321 5.17705 48.1 4.82171 47.814C4.46638 47.5367 4.18471 47.203 3.97671 46.813C3.77738 46.4317 3.67771 46.0157 3.67771 45.565C3.67771 45.4003 3.69071 45.188 3.71671 44.928C3.74271 44.668 3.77738 44.369 3.82071 44.031C3.87271 43.693 3.92905 43.3333 3.98971 42.952L5.70571 43.186C5.61905 43.732 5.54971 44.2173 5.49771 44.642C5.44571 45.0667 5.41971 45.3657 5.41971 45.539C5.41971 45.8683 5.51071 46.1587 5.69271 46.41C5.87471 46.6613 6.13038 46.8563 6.45971 46.995C6.79771 47.1423 7.19205 47.216 7.64272 47.216H11.3217C11.885 47.216 12.3054 47.073 12.5827 46.787C12.86 46.5097 12.9987 46.085 12.9987 45.513C12.9987 45.227 12.951 45.006 12.8557 44.85C12.7604 44.6853 12.5914 44.5467 12.3487 44.434C12.106 44.3127 11.755 44.1827 11.2957 44.044C10.7757 43.8793 10.3207 43.7233 9.93072 43.576C9.54072 43.4287 9.22005 43.2683 8.96872 43.095C8.71738 42.913 8.52672 42.6963 8.39672 42.445C8.27538 42.1937 8.21472 41.8773 8.21472 41.496C8.21472 40.924 8.34038 40.456 8.59172 40.092C8.84305 39.7193 9.20272 39.442 9.67072 39.26C10.1387 39.0693 10.6934 38.974 11.3347 38.974L11.2697 40.482C10.949 40.482 10.689 40.5167 10.4897 40.586C10.299 40.6467 10.1604 40.7463 10.0737 40.885C9.98705 41.015 9.94372 41.1883 9.94372 41.405C9.94372 41.587 9.98705 41.7387 10.0737 41.86C10.169 41.9727 10.3034 42.0723 10.4767 42.159C10.65 42.2457 10.8494 42.3237 11.0747 42.393C11.3 42.4537 11.547 42.5273 11.8157 42.614C12.2924 42.7527 12.7084 42.9087 13.0637 43.082C13.4277 43.2467 13.731 43.4373 13.9737 43.654C14.225 43.8707 14.4114 44.135 14.5327 44.447C14.6627 44.7503 14.7277 45.1143 14.7277 45.539C14.7277 46.163 14.589 46.7133 14.3117 47.19C14.0344 47.6667 13.64 48.0393 13.1287 48.308C12.626 48.5853 12.0237 48.724 11.3217 48.724H7.64272ZM15.8847 45.5V38.974H17.6267V44.837L16.6127 43.992H18.9917V45.5H15.8847ZM11.2697 40.482L11.3347 38.974H15.8847V40.482H11.2697ZM18.9917 45.5V43.992C19.0437 43.992 19.0827 44.0093 19.1087 44.044C19.1434 44.0787 19.1694 44.1307 19.1867 44.2C19.2127 44.2693 19.23 44.3517 19.2387 44.447C19.2474 44.5337 19.2517 44.6333 19.2517 44.746C19.2517 44.8587 19.2474 44.9627 19.2387 45.058C19.23 45.1533 19.2127 45.2357 19.1867 45.305C19.1694 45.3657 19.1434 45.4133 19.1087 45.448C19.0827 45.4827 19.0437 45.5 18.9917 45.5ZM13.6097 37.778V36.296H15.2867V37.778H13.6097ZM15.9757 37.778V36.296H17.6527V37.778H15.9757ZM7.20072 51.506V50.024H8.87772V51.506H7.20072ZM9.56672 51.506V50.024H11.2437V51.506H9.56672ZM28.0498 45.5V43.992H29.4148V45.5H28.0498ZM18.9888 45.5V43.992H28.0628L26.5938 45.266V42.536C26.5938 42.042 26.5288 41.6477 26.3988 41.353C26.2688 41.0497 26.0781 40.8287 25.8268 40.69C25.5841 40.5513 25.2894 40.482 24.9428 40.482C24.5701 40.482 24.2191 40.5557 23.8898 40.703C23.5604 40.8503 23.2484 41.041 22.9538 41.275C22.6678 41.509 22.4034 41.7603 22.1608 42.029C21.9181 42.2977 21.7014 42.5577 21.5108 42.809C21.3201 43.0517 21.1554 43.2597 21.0168 43.433L20.6268 42.172C20.9821 41.7213 21.3114 41.301 21.6148 40.911C21.9268 40.521 22.2518 40.183 22.5898 39.897C22.9278 39.6023 23.3004 39.377 23.7078 39.221C24.1151 39.0563 24.5874 38.974 25.1248 38.974C25.7054 38.974 26.1951 39.0737 26.5938 39.273C27.0011 39.4637 27.3348 39.728 27.5948 40.066C27.8548 40.404 28.0411 40.7853 28.1538 41.21C28.2664 41.6347 28.3228 42.0767 28.3228 42.536V45.5H18.9888ZM19.8858 43.992V36.309H21.6148V43.992H19.8858ZM18.9888 45.5C18.9368 45.5 18.8978 45.4827 18.8718 45.448C18.8371 45.4133 18.8111 45.3657 18.7938 45.305C18.7678 45.2357 18.7504 45.1533 18.7418 45.058C18.7331 44.9627 18.7288 44.8587 18.7288 44.746C18.7288 44.59 18.7374 44.46 18.7548 44.356C18.7721 44.2433 18.8024 44.1567 18.8458 44.096C18.8804 44.0267 18.9281 43.992 18.9888 43.992V45.5ZM29.4148 45.5V43.992C29.4668 43.992 29.5101 44.0093 29.5448 44.044C29.5794 44.0787 29.6054 44.1307 29.6228 44.2C29.6401 44.2693 29.6531 44.3517 29.6618 44.447C29.6704 44.5337 29.6748 44.6333 29.6748 44.746C29.6748 44.8587 29.6704 44.9627 29.6618 45.058C29.6531 45.1533 29.6401 45.2357 29.6228 45.305C29.6054 45.3657 29.5794 45.4133 29.5448 45.448C29.5101 45.4827 29.4668 45.5 29.4148 45.5ZM23.6428 37.778V36.296H25.3848V37.778H23.6428ZM36.6916 45.5V43.992H38.0566V45.5H36.6916ZM29.4116 45.5C29.3596 45.5 29.3206 45.4827 29.2946 45.448C29.26 45.4133 29.234 45.3657 29.2166 45.305C29.1906 45.2357 29.1733 45.1533 29.1646 45.058C29.156 44.9627 29.1516 44.8587 29.1516 44.746C29.1516 44.59 29.1603 44.46 29.1776 44.356C29.195 44.2433 29.2253 44.1567 29.2686 44.096C29.3033 44.0267 29.351 43.992 29.4116 43.992V45.5ZM29.4116 45.5V43.992H35.4826L34.9496 44.447V40.105L35.3916 40.482H33.7536C33.3723 40.482 33.0733 40.5297 32.8566 40.625C32.64 40.7203 32.4883 40.898 32.4016 41.158C32.315 41.4093 32.2716 41.769 32.2716 42.237C32.2716 42.7483 32.315 43.1297 32.4016 43.381C32.4883 43.6237 32.64 43.7883 32.8566 43.875C33.0733 43.953 33.3723 43.992 33.7536 43.992V45.344C33.017 45.344 32.4103 45.24 31.9336 45.032C31.457 44.824 31.1016 44.4947 30.8676 44.044C30.6423 43.5847 30.5296 42.9823 30.5296 42.237C30.5296 41.5263 30.6423 40.9283 30.8676 40.443C31.1016 39.9577 31.457 39.5937 31.9336 39.351C32.4103 39.0997 33.017 38.974 33.7536 38.974H36.6916V45.5H29.4116ZM38.0566 45.5V43.992C38.1086 43.992 38.152 44.0093 38.1866 44.044C38.2213 44.0787 38.2473 44.1307 38.2646 44.2C38.282 44.2693 38.295 44.3517 38.3036 44.447C38.3123 44.5337 38.3166 44.6333 38.3166 44.746C38.3166 44.8587 38.3123 44.9627 38.3036 45.058C38.295 45.1533 38.282 45.2357 38.2646 45.305C38.2473 45.3657 38.2213 45.4133 38.1866 45.448C38.152 45.4827 38.1086 45.5 38.0566 45.5ZM33.0646 37.778V36.296H34.8066V37.778H33.0646ZM44.7911 45.5V43.992H46.1691V45.5H44.7911ZM38.0571 45.5C38.0051 45.5 37.9661 45.4827 37.9401 45.448C37.9055 45.4133 37.8795 45.3657 37.8621 45.305C37.8361 45.2357 37.8188 45.1533 37.8101 45.058C37.8015 44.9627 37.7971 44.8587 37.7971 44.746C37.7971 44.59 37.8058 44.46 37.8231 44.356C37.8405 44.2433 37.8708 44.1567 37.9141 44.096C37.9488 44.0267 37.9965 43.992 38.0571 43.992V45.5ZM38.0571 45.5V43.992H43.6471L43.0621 44.473V42.068C43.0621 41.548 42.8975 41.1537 42.5681 40.885C42.2475 40.6163 41.7361 40.482 41.0341 40.482C40.8348 40.482 40.5618 40.4993 40.2151 40.534C39.8685 40.56 39.4915 40.6033 39.0841 40.664L38.9151 39.286C39.2878 39.1993 39.6648 39.1257 40.0461 39.065C40.4361 39.0043 40.8175 38.974 41.1901 38.974C41.9008 38.974 42.5248 39.0997 43.0621 39.351C43.5995 39.5937 44.0198 39.9447 44.3231 40.404C44.6351 40.8633 44.7911 41.418 44.7911 42.068V45.5H38.0571ZM46.1691 45.5V43.992C46.2125 43.992 46.2515 44.0093 46.2861 44.044C46.3208 44.0787 46.3468 44.1307 46.3641 44.2C46.3815 44.2693 46.3945 44.3517 46.4031 44.447C46.4205 44.5337 46.4291 44.6333 46.4291 44.746C46.4291 44.8587 46.4205 44.9627 46.4031 45.058C46.3945 45.1533 46.3815 45.2357 46.3641 45.305C46.3468 45.3657 46.3208 45.4133 46.2861 45.448C46.2515 45.4827 46.2125 45.5 46.1691 45.5ZM46.1694 45.5V43.992H52.9164L52.1234 44.668V42.276C52.1234 41.808 52.0714 41.444 51.9674 41.184C51.8634 40.9153 51.6814 40.729 51.4214 40.625C51.1701 40.5123 50.8191 40.456 50.3684 40.456C50.0131 40.456 49.6621 40.482 49.3154 40.534C48.9774 40.5773 48.7131 40.638 48.5224 40.716L49.6014 39.702C49.5494 39.9013 49.4974 40.1527 49.4454 40.456C49.4021 40.7593 49.3631 41.0843 49.3284 41.431C49.2938 41.769 49.2764 42.1027 49.2764 42.432C49.2764 42.7353 49.2894 43.0517 49.3154 43.381C49.3501 43.7103 49.3848 44.0007 49.4194 44.252C49.4628 44.5033 49.4974 44.6767 49.5234 44.772L47.8724 45.227C47.8378 45.1057 47.7944 44.9063 47.7424 44.629C47.6904 44.3517 47.6428 44.0223 47.5994 43.641C47.5648 43.2597 47.5474 42.8567 47.5474 42.432C47.5474 41.9987 47.5691 41.5827 47.6124 41.184C47.6558 40.7767 47.7034 40.4127 47.7554 40.092C47.8161 39.7627 47.8724 39.4983 47.9244 39.299C48.1324 39.221 48.4574 39.143 48.8994 39.065C49.3414 38.987 49.8311 38.948 50.3684 38.948C51.1484 38.948 51.7941 39.0563 52.3054 39.273C52.8254 39.4897 53.2111 39.8407 53.4624 40.326C53.7224 40.8113 53.8524 41.4657 53.8524 42.289V45.5H46.1694ZM46.1694 45.5C46.1174 45.5 46.0784 45.4827 46.0524 45.448C46.0178 45.4133 45.9918 45.3657 45.9744 45.305C45.9484 45.2357 45.9311 45.1533 45.9224 45.058C45.9138 44.9627 45.9094 44.8587 45.9094 44.746C45.9094 44.59 45.9181 44.46 45.9354 44.356C45.9528 44.2433 45.9831 44.1567 46.0264 44.096C46.0611 44.0267 46.1088 43.992 46.1694 43.992V45.5Z" fill="#1007FA"/>
</svg>
