<svg width="57" height="53" viewBox="0 0 57 53" fill="none" xmlns="http://www.w3.org/2000/svg">
<mask id="path-1-inside-1_1_586" fill="white">
<path d="M0.960938 0H56.9609V46H0.960938V0Z"/>
</mask>
<path d="M0.960938 2H56.9609V-2H0.960938V2Z" fill="#1007FA" mask="url(#path-1-inside-1_1_586)"/>
<g clip-path="url(#clip0_1_586)">
<path d="M21.3706 19.7121L21.3707 19.7121C21.5331 19.7247 23.5573 19.8633 25.947 19.0925C28.3148 18.3287 31.0388 16.6734 32.6712 13.1159L31.5272 12.5516L31.527 12.5515C31.3605 12.4688 31.2564 12.2977 31.2616 12.1102C31.2647 11.9242 31.3796 11.7561 31.5495 11.6841L31.5494 11.6841L31.5887 11.776L31.5497 11.684L21.3706 19.7121ZM21.3706 19.7121C21.1181 19.6927 20.9013 19.8708 20.8659 20.1187M21.3706 19.7121L20.8659 20.1187M20.8659 20.1187C20.8306 20.3653 20.9879 20.6012 21.2334 20.6543M20.8659 20.1187L21.2334 20.6543M21.2334 20.6543C22.626 20.9592 23.8858 21.1 25.0318 21.1M21.2334 20.6543L25.0318 21.1M25.0318 21.1C27.7485 21.1 29.8141 20.3146 31.4504 19.1098M25.0318 21.1L31.4504 19.1098M31.4504 19.1098C33.0563 17.9273 34.2441 16.3442 35.2289 14.7159M31.4504 19.1098L35.2289 14.7159M35.2289 14.7159L36.3435 15.3911L35.2289 14.7159ZM36.8548 15.3771C36.8549 15.377 36.855 15.3769 36.8551 15.3768L36.7979 15.2948L36.8544 15.3773C36.8546 15.3772 36.8547 15.3772 36.8548 15.3771ZM33.7231 13.075C33.8214 12.8429 33.7204 12.5725 33.4955 12.4617C33.4955 12.4617 33.4955 12.4617 33.4955 12.4617L32.8749 12.1559L35.4504 11.0531L35.9494 14.0368L35.3126 13.6504C35.3124 13.6503 35.3123 13.6502 35.3121 13.6501C35.2048 13.5835 35.073 13.5639 34.9512 13.597C34.8271 13.628 34.723 13.7089 34.6602 13.819L34.7471 13.8685L34.6607 13.8182C33.6626 15.5308 32.5155 17.1385 30.959 18.3052C29.58 19.3389 27.8751 20.0298 25.6581 20.1351C28.4424 19.3604 31.8765 17.4977 33.7231 13.075Z" fill="#1007FA" stroke="#1007FA" stroke-width="0.2"/>
<path d="M23.1492 25C22.4842 25 21.9609 25.7033 21.9609 26.5987V29.4013C21.9609 30.2988 22.4822 31 23.1492 31H24.7727C25.4397 31 25.9609 30.2967 25.9609 29.4013V26.5987C25.9609 25.7012 25.4397 25 24.7727 25H23.1492ZM25.27 26.5987V29.4013C25.27 29.8565 25.0383 30.2557 24.7727 30.2557H23.1492C22.8836 30.2557 22.6519 29.8565 22.6519 29.4013V26.5987C22.6519 26.1435 22.8836 25.7443 23.1492 25.7443H24.7727C25.0383 25.7443 25.27 26.1435 25.27 26.5987Z" fill="#1007FA" stroke="#1007FA" stroke-width="0.2"/>
<path d="M28.1492 22C27.4842 22 26.9609 22.7337 26.9609 23.6677V29.3323C26.9609 30.2686 27.4822 31 28.1492 31H29.7727C30.4377 31 30.9609 30.2663 30.9609 29.3323V23.6677C30.9609 22.7314 30.4397 22 29.7727 22H28.1492ZM30.27 23.6677V29.3323C30.27 29.8072 30.0383 30.2236 29.7727 30.2236H28.1492C27.8836 30.2236 27.6519 29.8072 27.6519 29.3323V23.6677C27.6519 23.1928 27.8836 22.7764 28.1492 22.7764H29.7727C30.0363 22.7764 30.27 23.1928 30.27 23.6677Z" fill="#1007FA" stroke="#1007FA" stroke-width="0.2"/>
<path d="M34.7727 19H33.1492C32.4842 19 31.9609 19.7164 31.9609 20.6283V29.3717C31.9609 30.2858 32.4822 31 33.1492 31H34.7727C35.4377 31 35.9609 30.2836 35.9609 29.3717V20.6283C35.9609 19.7164 35.4397 19 34.7727 19ZM35.27 29.3717C35.27 29.8354 35.0383 30.2419 34.7727 30.2419H33.1492C32.8836 30.2419 32.6519 29.8354 32.6519 29.3717V20.6283C32.6519 20.1646 32.8836 19.7581 33.1492 19.7581H34.7727C35.0383 19.7581 35.27 20.1646 35.27 20.6283V29.3717Z" fill="#1007FA" stroke="#1007FA" stroke-width="0.2"/>
</g>
<path d="M7.11027 49.472C6.50361 49.472 5.93894 49.3833 5.41627 49.206C4.90294 49.038 4.45494 48.8 4.07227 48.492C3.68961 48.1933 3.38627 47.834 3.16227 47.414C2.94761 47.0033 2.84027 46.5553 2.84027 46.07C2.84027 45.8927 2.85427 45.664 2.88227 45.384C2.91027 45.104 2.94761 44.782 2.99427 44.418C3.05027 44.054 3.11094 43.6667 3.17627 43.256L5.02427 43.508C4.93094 44.096 4.85627 44.6187 4.80027 45.076C4.74427 45.5333 4.71627 45.8553 4.71627 46.042C4.71627 46.3967 4.81427 46.7093 5.01027 46.98C5.20627 47.2507 5.48161 47.4607 5.83627 47.61C6.20027 47.7687 6.62494 47.848 7.11027 47.848H11.0723C11.6789 47.848 12.1316 47.694 12.4303 47.386C12.7289 47.078 12.8783 46.63 12.8783 46.042V45.51H14.7403V46.042C14.7403 46.714 14.5909 47.3067 14.2923 47.82C13.9936 48.3333 13.5689 48.7347 13.0183 49.024C12.4769 49.3227 11.8283 49.472 11.0723 49.472H7.11027ZM12.2623 46C11.8329 46 11.4176 45.9533 11.0163 45.86C10.6243 45.7667 10.2509 45.5987 9.89627 45.356L10.9603 44.012C11.1096 44.1147 11.2403 44.194 11.3523 44.25C11.4736 44.2967 11.6043 44.3293 11.7443 44.348C11.8936 44.3667 12.0663 44.376 12.2623 44.376H15.3563V46H12.2623ZM15.3563 46V44.376C15.4029 44.376 15.4449 44.3947 15.4823 44.432C15.5196 44.4693 15.5476 44.5253 15.5663 44.6C15.5849 44.6747 15.5989 44.7633 15.6083 44.866C15.6269 44.9593 15.6363 45.0667 15.6363 45.188C15.6363 45.3093 15.6269 45.4213 15.6083 45.524C15.5989 45.6267 15.5849 45.7153 15.5663 45.79C15.5476 45.8553 15.5196 45.9067 15.4823 45.944C15.4449 45.9813 15.4029 46 15.3563 46ZM6.63427 52.356V50.76H8.44027V52.356H6.63427ZM9.18227 52.356V50.76H10.9883V52.356H9.18227ZM15.3506 46V44.376H18.6686L17.5766 45.286V38.972H19.4386V46H15.3506ZM15.3506 46C15.2946 46 15.2526 45.9813 15.2246 45.944C15.1873 45.9067 15.1593 45.8553 15.1406 45.79C15.1126 45.7153 15.0939 45.6267 15.0846 45.524C15.0753 45.4213 15.0706 45.3093 15.0706 45.188C15.0706 45.02 15.0799 44.88 15.0986 44.768C15.1173 44.6467 15.1499 44.5533 15.1966 44.488C15.2339 44.4133 15.2853 44.376 15.3506 44.376V46ZM16.3446 37.684V36.088H18.1506V37.684H16.3446ZM18.8926 37.684V36.088H20.6986V37.684H18.8926ZM23.5859 46V44.376H25.1819V46H23.5859ZM21.7239 46V36.102H23.5859V46H21.7239ZM25.1819 46V44.376C25.2379 44.376 25.2799 44.3947 25.3079 44.432C25.3452 44.4693 25.3732 44.5253 25.3919 44.6C25.4199 44.6747 25.4385 44.7633 25.4479 44.866C25.4572 44.9593 25.4619 45.0667 25.4619 45.188C25.4619 45.3093 25.4572 45.4213 25.4479 45.524C25.4385 45.6267 25.4199 45.7153 25.3919 45.79C25.3732 45.8553 25.3452 45.9067 25.3079 45.944C25.2799 45.9813 25.2379 46 25.1819 46ZM33.0207 46V44.376H34.4907V46H33.0207ZM25.1807 46C25.1247 46 25.0827 45.9813 25.0547 45.944C25.0173 45.9067 24.9893 45.8553 24.9707 45.79C24.9427 45.7153 24.924 45.6267 24.9147 45.524C24.9053 45.4213 24.9007 45.3093 24.9007 45.188C24.9007 45.02 24.91 44.88 24.9287 44.768C24.9473 44.6467 24.98 44.5533 25.0267 44.488C25.064 44.4133 25.1153 44.376 25.1807 44.376V46ZM25.1807 46V44.376H31.7187L31.1447 44.866V40.19L31.6207 40.596H29.8567C29.446 40.596 29.124 40.6473 28.8907 40.75C28.6573 40.8527 28.494 41.044 28.4007 41.324C28.3073 41.5947 28.2607 41.982 28.2607 42.486C28.2607 43.0367 28.3073 43.4473 28.4007 43.718C28.494 43.9793 28.6573 44.1567 28.8907 44.25C29.124 44.334 29.446 44.376 29.8567 44.376V45.832C29.0633 45.832 28.41 45.72 27.8967 45.496C27.3833 45.272 27.0007 44.9173 26.7487 44.432C26.506 43.9373 26.3847 43.2887 26.3847 42.486C26.3847 41.7207 26.506 41.0767 26.7487 40.554C27.0007 40.0313 27.3833 39.6393 27.8967 39.378C28.41 39.1073 29.0633 38.972 29.8567 38.972H33.0207V46H25.1807ZM34.4907 46V44.376C34.5467 44.376 34.5933 44.3947 34.6307 44.432C34.668 44.4693 34.696 44.5253 34.7147 44.6C34.7333 44.6747 34.7473 44.7633 34.7567 44.866C34.766 44.9593 34.7707 45.0667 34.7707 45.188C34.7707 45.3093 34.766 45.4213 34.7567 45.524C34.7473 45.6267 34.7333 45.7153 34.7147 45.79C34.696 45.8553 34.668 45.9067 34.6307 45.944C34.5933 45.9813 34.5467 46 34.4907 46ZM27.8827 37.684V36.088H29.6887V37.684H27.8827ZM30.4307 37.684V36.088H32.2367V37.684H30.4307ZM42.3312 46V44.376H43.8012V46H42.3312ZM34.4912 46C34.4352 46 34.3932 45.9813 34.3652 45.944C34.3279 45.9067 34.2999 45.8553 34.2812 45.79C34.2532 45.7153 34.2345 45.6267 34.2252 45.524C34.2159 45.4213 34.2112 45.3093 34.2112 45.188C34.2112 45.02 34.2205 44.88 34.2392 44.768C34.2579 44.6467 34.2905 44.5533 34.3372 44.488C34.3745 44.4133 34.4259 44.376 34.4912 44.376V46ZM34.4912 46V44.376H41.0292L40.4552 44.866V40.19L40.9312 40.596H39.1672C38.7565 40.596 38.4345 40.6473 38.2012 40.75C37.9679 40.8527 37.8045 41.044 37.7112 41.324C37.6179 41.5947 37.5712 41.982 37.5712 42.486C37.5712 43.0367 37.6179 43.4473 37.7112 43.718C37.8045 43.9793 37.9679 44.1567 38.2012 44.25C38.4345 44.334 38.7565 44.376 39.1672 44.376V45.832C38.3739 45.832 37.7205 45.72 37.2072 45.496C36.6939 45.272 36.3112 44.9173 36.0592 44.432C35.8165 43.9373 35.6952 43.2887 35.6952 42.486C35.6952 41.7207 35.8165 41.0767 36.0592 40.554C36.3112 40.0313 36.6939 39.6393 37.2072 39.378C37.7205 39.1073 38.3739 38.972 39.1672 38.972H42.3312V46H34.4912ZM43.8012 46V44.376C43.8572 44.376 43.9039 44.3947 43.9412 44.432C43.9785 44.4693 44.0065 44.5253 44.0252 44.6C44.0439 44.6747 44.0579 44.7633 44.0672 44.866C44.0765 44.9593 44.0812 45.0667 44.0812 45.188C44.0812 45.3093 44.0765 45.4213 44.0672 45.524C44.0579 45.6267 44.0439 45.7153 44.0252 45.79C44.0065 45.8553 43.9785 45.9067 43.9412 45.944C43.9039 45.9813 43.8572 46 43.8012 46ZM38.4252 37.684V36.088H40.3012V37.684H38.4252ZM43.8018 46V44.376H54.3858L52.8038 45.748V42.808C52.8038 42.276 52.7338 41.8513 52.5938 41.534C52.4538 41.2073 52.2484 40.9693 51.9778 40.82C51.7164 40.6707 51.3991 40.596 51.0258 40.596C50.6244 40.596 50.2418 40.6753 49.8778 40.834C49.5231 40.9927 49.1918 41.198 48.8838 41.45C48.5758 41.702 48.2911 41.9727 48.0298 42.262C47.7684 42.5513 47.5351 42.8313 47.3298 43.102C47.1244 43.3633 46.9471 43.5873 46.7978 43.774L46.3778 42.416C46.7418 41.9773 47.0684 41.576 47.3578 41.212C47.6471 40.848 47.9224 40.526 48.1838 40.246C48.4544 39.966 48.7344 39.7327 49.0238 39.546C49.3224 39.3593 49.6444 39.2193 49.9898 39.126C50.3444 39.0233 50.7551 38.972 51.2218 38.972C51.8471 38.972 52.3791 39.0793 52.8178 39.294C53.2564 39.4993 53.6111 39.784 53.8818 40.148C54.1618 40.512 54.3624 40.9227 54.4838 41.38C54.6144 41.8373 54.6798 42.3133 54.6798 42.808V46H43.8018ZM45.5658 44.376V38.972H47.4418V44.376H45.5658ZM43.8018 46C43.7458 46 43.7038 45.9813 43.6758 45.944C43.6384 45.9067 43.6104 45.8553 43.5918 45.79C43.5638 45.7153 43.5451 45.6267 43.5358 45.524C43.5264 45.4213 43.5218 45.3093 43.5218 45.188C43.5218 45.02 43.5311 44.88 43.5498 44.768C43.5684 44.6467 43.6011 44.5533 43.6478 44.488C43.6851 44.4133 43.7364 44.376 43.8018 44.376V46Z" fill="#1007FA"/>
<defs>
<clipPath id="clip0_1_586">
<rect width="18" height="24" fill="white" transform="translate(19.9609 8)"/>
</clipPath>
</defs>
</svg>
