<svg width="57" height="50" viewBox="0 0 57 50" fill="none" xmlns="http://www.w3.org/2000/svg">
<mask id="path-1-inside-1_1_587" fill="white">
<path d="M0.960938 0H56.9609V46H0.960938V0Z"/>
</mask>
<path d="M0.960938 2H56.9609V-2H0.960938V2Z" fill="#1007FA" mask="url(#path-1-inside-1_1_587)"/>
<path d="M19.2109 19.9991L28.1649 11.0441C28.6049 10.6051 29.3169 10.6051 29.7559 11.0441L38.7109 19.9991M21.4609 17.7491V27.8741C21.4609 28.4951 21.9649 28.9991 22.5859 28.9991H26.7109V24.1241C26.7109 23.5031 27.2149 22.9991 27.8359 22.9991H30.0859C30.7069 22.9991 31.2109 23.5031 31.2109 24.1241V28.9991H35.3359C35.9569 28.9991 36.4609 28.4951 36.4609 27.8741V17.7491M25.2109 28.9991H33.4609" stroke="#1007FA" stroke-width="1.5" stroke-linecap="round" stroke-linejoin="round"/>
<path d="M7.0779 46C6.28457 46 5.63123 45.874 5.1179 45.622C4.60457 45.37 4.2219 44.9873 3.9699 44.474C3.72723 43.9607 3.6059 43.312 3.6059 42.528C3.6059 41.744 3.72723 41.0907 3.9699 40.568C4.2219 40.036 4.60457 39.6393 5.1179 39.378C5.63123 39.1073 6.28457 38.972 7.0779 38.972H10.2419V45.118H8.3659V40.19L8.8279 40.596H7.0779C6.69523 40.596 6.38723 40.6427 6.1539 40.736C5.92057 40.82 5.7479 41.002 5.6359 41.282C5.53323 41.5527 5.4819 41.968 5.4819 42.528C5.4819 43.06 5.52857 43.4613 5.6219 43.732C5.72457 43.9933 5.89257 44.166 6.1259 44.25C6.35923 44.334 6.67657 44.376 7.0779 44.376H11.7119V46H7.0779ZM11.7119 46V44.376C11.7679 44.376 11.8099 44.3947 11.8379 44.432C11.8752 44.4693 11.9032 44.5253 11.9219 44.6C11.9499 44.6747 11.9686 44.7633 11.9779 44.866C11.9872 44.9593 11.9919 45.0667 11.9919 45.188C11.9919 45.3093 11.9872 45.4213 11.9779 45.524C11.9686 45.6267 11.9499 45.7153 11.9219 45.79C11.9032 45.8553 11.8752 45.9067 11.8379 45.944C11.8099 45.9813 11.7679 46 11.7119 46ZM4.9919 37.684V36.088H6.7979V37.684H4.9919ZM7.5399 37.684V36.088H9.3459V37.684H7.5399ZM15.8019 46V44.376H17.5519V46H15.8019ZM17.5519 46V44.376C17.5985 44.376 17.6405 44.3947 17.6779 44.432C17.7152 44.4693 17.7432 44.5253 17.7619 44.6C17.7805 44.6747 17.7945 44.7633 17.8039 44.866C17.8225 44.9593 17.8319 45.0667 17.8319 45.188C17.8319 45.3093 17.8225 45.4213 17.8039 45.524C17.7945 45.6267 17.7805 45.7153 17.7619 45.79C17.7432 45.8553 17.7152 45.9067 17.6779 45.944C17.6499 45.9813 17.6079 46 17.5519 46ZM11.7139 46C11.6579 46 11.6159 45.9813 11.5879 45.944C11.5505 45.9067 11.5225 45.8553 11.5039 45.79C11.4759 45.7153 11.4572 45.6267 11.4479 45.524C11.4385 45.4213 11.4339 45.3093 11.4339 45.188C11.4339 45.02 11.4432 44.88 11.4619 44.768C11.4805 44.6467 11.5132 44.5533 11.5599 44.488C11.5972 44.4133 11.6485 44.376 11.7139 44.376V46ZM11.7139 46V44.376H15.0319L13.9399 45.286V38.972H15.8019V46H11.7139ZM12.2179 48.982V47.386H14.0239V48.982H12.2179ZM14.7659 48.982V47.386H16.5719V48.982H14.7659ZM29.2978 46V44.376H30.7818V46H29.2978ZM17.5518 46C17.4958 46 17.4538 45.9813 17.4258 45.944C17.3884 45.9067 17.3604 45.8553 17.3418 45.79C17.3138 45.7153 17.2951 45.6267 17.2858 45.524C17.2764 45.4213 17.2718 45.3093 17.2718 45.188C17.2718 45.02 17.2811 44.88 17.2998 44.768C17.3184 44.6467 17.3511 44.5533 17.3978 44.488C17.4351 44.4133 17.4864 44.376 17.5518 44.376V46ZM25.7838 46C25.4011 46 25.0184 45.93 24.6358 45.79C24.2624 45.6407 23.9171 45.4213 23.5998 45.132L24.7478 43.942C24.9344 44.0913 25.1071 44.2033 25.2658 44.278C25.4338 44.3433 25.6064 44.376 25.7838 44.376H28.4018L27.4358 45.258V42.15C27.4358 42.0007 27.4171 41.7767 27.3798 41.478C27.3518 41.17 27.3051 40.8247 27.2398 40.442C27.1838 40.05 27.1138 39.6533 27.0298 39.252L28.8778 38.972C28.9431 39.308 29.0038 39.686 29.0598 40.106C29.1251 40.5167 29.1811 40.9087 29.2278 41.282C29.2744 41.646 29.2978 41.9353 29.2978 42.15V46H25.7838ZM17.5518 46V44.376H19.5958L19.1758 44.81V40.4H21.0518V46H17.5518ZM21.0518 46V44.376H22.1858C22.4844 44.376 22.7131 44.334 22.8718 44.25C23.0304 44.1567 23.1378 43.9747 23.1938 43.704C23.2591 43.424 23.2918 43.0087 23.2918 42.458V39.7H25.1678V42.458C25.1678 43.2887 25.0604 43.9653 24.8458 44.488C24.6404 45.0107 24.3184 45.3933 23.8798 45.636C23.4411 45.8787 22.8764 46 22.1858 46H21.0518ZM30.7818 46V44.376C30.8284 44.376 30.8704 44.3947 30.9078 44.432C30.9451 44.4693 30.9731 44.5253 30.9918 44.6C31.0104 44.6747 31.0244 44.7633 31.0338 44.866C31.0524 44.9593 31.0618 45.0667 31.0618 45.188C31.0618 45.3093 31.0524 45.4213 31.0338 45.524C31.0244 45.6267 31.0104 45.7153 30.9918 45.79C30.9731 45.8553 30.9451 45.9067 30.9078 45.944C30.8704 45.9813 30.8284 46 30.7818 46ZM34.8741 46V44.376H36.6241V46H34.8741ZM36.6241 46V44.376C36.6708 44.376 36.7128 44.3947 36.7501 44.432C36.7875 44.4693 36.8155 44.5253 36.8341 44.6C36.8528 44.6747 36.8668 44.7633 36.8761 44.866C36.8948 44.9593 36.9041 45.0667 36.9041 45.188C36.9041 45.3093 36.8948 45.4213 36.8761 45.524C36.8668 45.6267 36.8528 45.7153 36.8341 45.79C36.8155 45.8553 36.7875 45.9067 36.7501 45.944C36.7221 45.9813 36.6801 46 36.6241 46ZM30.7861 46C30.7301 46 30.6881 45.9813 30.6601 45.944C30.6228 45.9067 30.5948 45.8553 30.5761 45.79C30.5481 45.7153 30.5295 45.6267 30.5201 45.524C30.5108 45.4213 30.5061 45.3093 30.5061 45.188C30.5061 45.02 30.5155 44.88 30.5341 44.768C30.5528 44.6467 30.5855 44.5533 30.6321 44.488C30.6695 44.4133 30.7208 44.376 30.7861 44.376V46ZM30.7861 46V44.376H34.1041L33.0121 45.286V38.972H34.8741V46H30.7861ZM31.2901 48.982V47.386H33.0961V48.982H31.2901ZM33.8381 48.982V47.386H35.6441V48.982H33.8381ZM36.624 46V44.376H39.186L38.094 45.286V38.972H39.97V46H36.624ZM36.624 46C36.568 46 36.526 45.9813 36.498 45.944C36.4607 45.9067 36.4327 45.8553 36.414 45.79C36.386 45.7153 36.3674 45.6267 36.358 45.524C36.3487 45.4213 36.344 45.3093 36.344 45.188C36.344 45.02 36.3534 44.88 36.372 44.768C36.3907 44.6467 36.4234 44.5533 36.47 44.488C36.5074 44.4133 36.5587 44.376 36.624 44.376V46ZM38.192 37.586C38.0147 37.3713 37.8794 37.166 37.786 36.97C37.6927 36.774 37.646 36.564 37.646 36.34C37.646 36.0227 37.73 35.738 37.898 35.486C38.066 35.2247 38.2854 35.024 38.556 34.884C38.8267 34.7347 39.1254 34.66 39.452 34.66C39.6294 34.66 39.8114 34.6833 39.998 34.73C40.1847 34.7767 40.3434 34.8467 40.474 34.94L39.998 35.794C39.914 35.7473 39.83 35.7193 39.746 35.71C39.6714 35.6913 39.592 35.682 39.508 35.682C39.284 35.682 39.1114 35.7427 38.99 35.864C38.8687 35.976 38.808 36.13 38.808 36.326C38.808 36.438 38.8314 36.5453 38.878 36.648C38.9247 36.7507 38.9947 36.8627 39.088 36.984L38.192 37.586ZM37.338 37.698V36.676H40.726V37.698H37.338ZM44.2334 46V44.376H46.0394V46H44.2334ZM41.5174 49.472C41.396 49.472 41.2654 49.4673 41.1254 49.458C40.9854 49.4487 40.8407 49.4347 40.6914 49.416L40.7614 47.82C40.9107 47.8293 41.0507 47.8387 41.1814 47.848C41.3214 47.8573 41.424 47.862 41.4894 47.862C41.8534 47.862 42.1427 47.7173 42.3574 47.428C42.5814 47.1387 42.6934 46.7327 42.6934 46.21V38.972H44.5694V46.21C44.5694 46.8447 44.4387 47.4093 44.1774 47.904C43.9254 48.3987 43.5707 48.7813 43.1134 49.052C42.656 49.332 42.124 49.472 41.5174 49.472ZM46.0394 46V44.376C46.0954 44.376 46.1374 44.3947 46.1654 44.432C46.2027 44.4693 46.2307 44.5253 46.2494 44.6C46.2774 44.6747 46.296 44.7633 46.3054 44.866C46.3147 44.9593 46.3194 45.0667 46.3194 45.188C46.3194 45.3093 46.3147 45.4213 46.3054 45.524C46.296 45.6267 46.2774 45.7153 46.2494 45.79C46.2307 45.8553 46.2027 45.9067 46.1654 45.944C46.1374 45.9813 46.0954 46 46.0394 46ZM47.6259 46V36.102H49.5019V46H47.6259ZM46.0439 46V44.376H47.6259V46H46.0439ZM46.0439 46C45.9879 46 45.9459 45.9813 45.9179 45.944C45.8806 45.9067 45.8526 45.8553 45.8339 45.79C45.8059 45.7153 45.7873 45.6267 45.7779 45.524C45.7686 45.4213 45.7639 45.3093 45.7639 45.188C45.7639 45.02 45.7733 44.88 45.7919 44.768C45.8106 44.6467 45.8433 44.5533 45.8899 44.488C45.9273 44.4133 45.9786 44.376 46.0439 44.376V46ZM51.7473 46V36.102H53.6093V46H51.7473Z" fill="#1007FA"/>
</svg>
