<svg width="57" height="50" viewBox="0 0 57 50" fill="none" xmlns="http://www.w3.org/2000/svg">
<mask id="path-1-inside-1_1_583" fill="white">
<path d="M0.960938 0H56.9609V46H0.960938V0Z"/>
</mask>
<path d="M0.960938 2H56.9609V-2H0.960938V2Z" fill="#1007FA" mask="url(#path-1-inside-1_1_583)"/>
<g clip-path="url(#clip0_1_583)">
<path d="M20.9609 14L36.9609 14" stroke="#1007FA" stroke-width="2" stroke-linecap="round" stroke-linejoin="round"/>
<path d="M20.9609 20L36.9609 20" stroke="#1007FA" stroke-width="2" stroke-linecap="round" stroke-linejoin="round"/>
<path d="M20.9609 26L36.9609 26" stroke="#1007FA" stroke-width="2" stroke-linecap="round" stroke-linejoin="round"/>
</g>
<path d="M16.5155 46V44.376H17.9855V46H16.5155ZM10.8315 46V44.376H15.9135L14.6395 45.482V43.13C14.6395 42.4673 14.5695 41.954 14.4295 41.59C14.2988 41.226 14.0748 40.9693 13.7575 40.82C13.4495 40.6707 13.0248 40.596 12.4835 40.596H11.3495V38.972H12.4835C13.3422 38.972 14.0702 39.112 14.6675 39.392C15.2742 39.672 15.7315 40.12 16.0395 40.736C16.3568 41.3427 16.5155 42.1407 16.5155 43.13V46H10.8315ZM17.9855 46V44.376C18.0415 44.376 18.0882 44.3947 18.1255 44.432C18.1628 44.4693 18.1908 44.5253 18.2095 44.6C18.2282 44.6747 18.2422 44.7633 18.2515 44.866C18.2608 44.9593 18.2655 45.0667 18.2655 45.188C18.2655 45.3093 18.2608 45.4213 18.2515 45.524C18.2422 45.6267 18.2282 45.7153 18.2095 45.79C18.1908 45.8553 18.1628 45.9067 18.1255 45.944C18.0882 45.9813 18.0415 46 17.9855 46ZM17.9824 46V44.376H21.3004L20.2084 45.286V38.972H22.0704V46H17.9824ZM17.9824 46C17.9264 46 17.8844 45.9813 17.8564 45.944C17.8191 45.9067 17.7911 45.8553 17.7724 45.79C17.7444 45.7153 17.7258 45.6267 17.7164 45.524C17.7071 45.4213 17.7024 45.3093 17.7024 45.188C17.7024 45.02 17.7118 44.88 17.7304 44.768C17.7491 44.6467 17.7818 44.5533 17.8284 44.488C17.8658 44.4133 17.9171 44.376 17.9824 44.376V46ZM18.4864 48.982V47.386H20.2924V48.982H18.4864ZM21.0344 48.982V47.386H22.8404V48.982H21.0344ZM27.246 46V44.376H29.052V46H27.246ZM24.53 49.472C24.4087 49.472 24.278 49.4673 24.138 49.458C23.998 49.4487 23.8534 49.4347 23.704 49.416L23.774 47.82C23.9234 47.8293 24.0634 47.8387 24.194 47.848C24.334 47.8573 24.4367 47.862 24.502 47.862C24.866 47.862 25.1554 47.7173 25.37 47.428C25.594 47.1387 25.706 46.7327 25.706 46.21V38.972H27.582V46.21C27.582 46.8447 27.4514 47.4093 27.19 47.904C26.938 48.3987 26.5834 48.7813 26.126 49.052C25.6687 49.332 25.1367 49.472 24.53 49.472ZM29.052 46V44.376C29.108 44.376 29.15 44.3947 29.178 44.432C29.2154 44.4693 29.2434 44.5253 29.262 44.6C29.29 44.6747 29.3087 44.7633 29.318 44.866C29.3274 44.9593 29.332 45.0667 29.332 45.188C29.332 45.3093 29.3274 45.4213 29.318 45.524C29.3087 45.6267 29.29 45.7153 29.262 45.79C29.2434 45.8553 29.2154 45.9067 29.178 45.944C29.15 45.9813 29.108 46 29.052 46ZM25.706 37.684V36.088H27.582V37.684H25.706ZM37.3306 46V44.376H38.8146V46H37.3306ZM29.0566 46C29.0006 46 28.9586 45.9813 28.9306 45.944C28.8933 45.9067 28.8653 45.8553 28.8466 45.79C28.8186 45.7153 28.8 45.6267 28.7906 45.524C28.7813 45.4213 28.7766 45.3093 28.7766 45.188C28.7766 45.02 28.786 44.88 28.8046 44.768C28.8233 44.6467 28.856 44.5533 28.9026 44.488C28.94 44.4133 28.9913 44.376 29.0566 44.376V46ZM29.0566 46V44.376H36.3226L35.4686 45.104V42.528C35.4686 42.024 35.4126 41.632 35.3006 41.352C35.1886 41.0627 34.9926 40.862 34.7126 40.75C34.442 40.6287 34.064 40.568 33.5786 40.568C33.196 40.568 32.818 40.596 32.4446 40.652C32.0806 40.6987 31.796 40.764 31.5906 40.848L32.7526 39.756C32.6966 39.9707 32.6406 40.2413 32.5846 40.568C32.538 40.8947 32.496 41.2447 32.4586 41.618C32.4213 41.982 32.4026 42.3413 32.4026 42.696C32.4026 43.0227 32.4166 43.3633 32.4446 43.718C32.482 44.0727 32.5193 44.3853 32.5566 44.656C32.6033 44.9267 32.6406 45.1133 32.6686 45.216L30.8906 45.706C30.8533 45.5753 30.8066 45.3607 30.7506 45.062C30.6946 44.7633 30.6433 44.4087 30.5966 43.998C30.5593 43.5873 30.5406 43.1533 30.5406 42.696C30.5406 42.2293 30.564 41.7813 30.6106 41.352C30.6573 40.9133 30.7086 40.5213 30.7646 40.176C30.83 39.8213 30.8906 39.5367 30.9466 39.322C31.1706 39.238 31.5206 39.154 31.9966 39.07C32.4726 38.986 33 38.944 33.5786 38.944C34.4186 38.944 35.114 39.0607 35.6646 39.294C36.2246 39.5273 36.64 39.9053 36.9106 40.428C37.1906 40.9507 37.3306 41.6553 37.3306 42.542V46H29.0566ZM38.8146 46V44.376C38.8613 44.376 38.9033 44.3947 38.9406 44.432C38.978 44.4693 39.006 44.5253 39.0246 44.6C39.0433 44.6747 39.0573 44.7633 39.0666 44.866C39.0853 44.9593 39.0946 45.0667 39.0946 45.188C39.0946 45.3093 39.0853 45.4213 39.0666 45.524C39.0573 45.6267 39.0433 45.7153 39.0246 45.79C39.006 45.8553 38.978 45.9067 38.9406 45.944C38.9033 45.9813 38.8613 46 38.8146 46ZM40.4004 46V36.102H42.2764V46H40.4004ZM38.8184 46V44.376H40.4004V46H38.8184ZM38.8184 46C38.7624 46 38.7204 45.9813 38.6924 45.944C38.655 45.9067 38.627 45.8553 38.6084 45.79C38.5804 45.7153 38.5617 45.6267 38.5524 45.524C38.543 45.4213 38.5384 45.3093 38.5384 45.188C38.5384 45.02 38.5477 44.88 38.5664 44.768C38.585 44.6467 38.6177 44.5533 38.6644 44.488C38.7017 44.4133 38.753 44.376 38.8184 44.376V46ZM44.5217 46V36.102H46.3837V46H44.5217Z" fill="#1007FA"/>
<defs>
<clipPath id="clip0_1_583">
<rect width="24" height="24" fill="white" transform="translate(16.9609 8)"/>
</clipPath>
</defs>
</svg>
