<svg width="20" height="21" viewBox="0 0 20 21" fill="none" xmlns="http://www.w3.org/2000/svg">
<path d="M2.70673 15.5506L1.95894 15.4931L2.70673 15.5506ZM17.2926 15.5506L18.0404 15.4931L17.2926 15.5506ZM16.8439 9.71725L16.0961 9.77477L16.8439 9.71725ZM3.15545 9.71725L3.90324 9.77478L3.15545 9.71725ZM7.50801 10.659C7.92222 10.659 8.25801 10.3232 8.25801 9.90899C8.25801 9.49478 7.92222 9.15899 7.50801 9.15899V10.659ZM7.49967 9.15899C7.08546 9.15899 6.74967 9.49478 6.74967 9.90899C6.74967 10.3232 7.08546 10.659 7.49967 10.659V9.15899ZM12.508 10.659C12.9222 10.659 13.258 10.3232 13.258 9.90899C13.258 9.49478 12.9222 9.15899 12.508 9.15899V10.659ZM12.4997 9.15899C12.0855 9.15899 11.7497 9.49478 11.7497 9.90899C11.7497 10.3232 12.0855 10.659 12.4997 10.659V9.15899ZM5.64808 8.15899H14.3513V6.65899H5.64808V8.15899ZM16.0961 9.77477L16.5448 15.6081L18.0404 15.4931L17.5917 9.65973L16.0961 9.77477ZM14.8 17.4923H5.19937V18.9923H14.8V17.4923ZM3.45452 15.6081L3.90324 9.77478L2.40766 9.65973L1.95894 15.4931L3.45452 15.6081ZM5.19937 17.4923C4.17997 17.4923 3.37634 16.6245 3.45452 15.6081L1.95894 15.4931C1.81374 17.3806 3.30621 18.9923 5.19937 18.9923V17.4923ZM16.5448 15.6081C16.623 16.6245 15.8194 17.4923 14.8 17.4923V18.9923C16.6931 18.9923 18.1856 17.3806 18.0404 15.4931L16.5448 15.6081ZM14.3513 8.15899C15.2657 8.15899 16.026 8.86303 16.0961 9.77477L17.5917 9.65973C17.4614 7.96649 16.0495 6.65899 14.3513 6.65899V8.15899ZM5.64808 6.65899C3.94984 6.65899 2.53791 7.96649 2.40766 9.65973L3.90324 9.77478C3.97337 8.86303 4.73365 8.15899 5.64808 8.15899V6.65899ZM11.7497 5.74233V7.40899H13.2497V5.74233H11.7497ZM8.24967 7.40899V5.74232H6.74967V7.40899H8.24967ZM9.99967 3.99232C10.9662 3.99232 11.7497 4.77583 11.7497 5.74233H13.2497C13.2497 3.9474 11.7946 2.49232 9.99967 2.49232V3.99232ZM9.99967 2.49232C8.20475 2.49232 6.74967 3.9474 6.74967 5.74232H8.24967C8.24967 4.77583 9.03318 3.99232 9.99967 3.99232V2.49232ZM7.50801 9.15899H7.49967V10.659H7.50801V9.15899ZM12.508 9.15899H12.4997V10.659H12.508V9.15899Z" fill="#38A169"/>
</svg>
