<svg width="20" height="20" viewBox="0 0 20 20" fill="none" xmlns="http://www.w3.org/2000/svg">
<path d="M0 6.52C0 4.16647 0 2.9897 0.479747 2.10057C0.850337 1.41375 1.41375 0.850337 2.10057 0.479747C2.9897 0 4.16647 0 6.52 0H13.48C15.8335 0 17.0103 0 17.8994 0.479747C18.5863 0.850337 19.1497 1.41375 19.5203 2.10057C20 2.9897 20 4.16647 20 6.52V13.48C20 15.8335 20 17.0103 19.5203 17.8994C19.1497 18.5863 18.5863 19.1497 17.8994 19.5203C17.0103 20 15.8335 20 13.48 20H6.52C4.16647 20 2.9897 20 2.10057 19.5203C1.41375 19.1497 0.850337 18.5863 0.479747 17.8994C0 17.0103 0 15.8335 0 13.48V6.52Z" fill="white"/>
<path d="M15.1744 8.67295C15.1744 10.7015 13.5316 12.3459 11.5052 12.3459C9.47871 12.3459 7.83594 10.7015 7.83594 8.67295C7.83594 6.64443 9.47871 5 11.5052 5C13.5316 5 15.1744 6.64443 15.1744 8.67295Z" fill="#F7F7F7" stroke="#3AC1FF"/>
<ellipse cx="9.16924" cy="11.6769" rx="3.66924" ry="3.67295" fill="white" stroke="#3AC1FF"/>
<path d="M9.1806 14.0145C9.08786 14.0145 9.00952 13.9818 8.94556 13.9164C8.88161 13.851 8.84963 13.7692 8.84963 13.6711V13.3082L8.99353 13.4406C8.77928 13.4308 8.59381 13.403 8.43712 13.3572C8.28043 13.3114 8.15252 13.2656 8.05339 13.2199C7.97024 13.1806 7.91109 13.125 7.87591 13.0531C7.84393 12.9811 7.83114 12.9076 7.83754 12.8323C7.84713 12.7571 7.87431 12.6885 7.91908 12.6263C7.96385 12.5642 8.02141 12.5233 8.09176 12.5037C8.16531 12.4808 8.25005 12.4906 8.34598 12.5331C8.40994 12.5691 8.50587 12.6067 8.63378 12.6459C8.76489 12.6819 8.92638 12.6999 9.11824 12.6999C9.25255 12.6999 9.35808 12.6868 9.43482 12.6607C9.51477 12.6345 9.57073 12.6002 9.60271 12.5577C9.63788 12.5119 9.65547 12.4628 9.65547 12.4105C9.65547 12.3614 9.64268 12.3206 9.6171 12.2879C9.59471 12.2519 9.55634 12.2208 9.50198 12.1947C9.44761 12.1652 9.37247 12.1391 9.27653 12.1162L8.73451 11.9985C8.43712 11.9298 8.21487 11.8153 8.06778 11.6551C7.92388 11.4916 7.85193 11.2807 7.85193 11.0223C7.85193 10.8261 7.89829 10.6512 7.99103 10.4975C8.08696 10.3405 8.21967 10.213 8.38915 10.1149C8.56183 10.0168 8.76329 9.95463 8.99353 9.92847L8.84963 10.0119V9.68321C8.84963 9.5851 8.88161 9.50335 8.94556 9.43795C9.00952 9.37255 9.08786 9.33984 9.1806 9.33984C9.27653 9.33984 9.35648 9.37255 9.42043 9.43795C9.48439 9.50335 9.51637 9.5851 9.51637 9.68321V10.0119L9.37247 9.91866C9.49398 9.92193 9.62509 9.94318 9.76579 9.98243C9.90649 10.0184 10.0296 10.0691 10.1351 10.1345C10.2087 10.1737 10.2598 10.2277 10.2886 10.2964C10.3206 10.365 10.3318 10.4353 10.3222 10.5073C10.3158 10.576 10.2902 10.6381 10.2455 10.6937C10.2039 10.7493 10.1463 10.7869 10.0728 10.8065C10.0024 10.8228 9.91769 10.8098 9.81856 10.7673C9.74501 10.7346 9.66186 10.7084 9.56913 10.6888C9.47959 10.6659 9.36447 10.6544 9.22377 10.6544C9.05429 10.6544 8.92318 10.6855 8.83044 10.7476C8.74091 10.8098 8.69614 10.8899 8.69614 10.988C8.69614 11.0534 8.72172 11.109 8.77288 11.1548C8.82725 11.1973 8.92478 11.2349 9.06548 11.2676L9.6123 11.3902C9.91609 11.4589 10.1399 11.5733 10.2838 11.7336C10.4309 11.8905 10.5045 12.0949 10.5045 12.3467C10.5045 12.5429 10.4581 12.7163 10.3654 12.8667C10.2726 13.0171 10.1431 13.1397 9.97684 13.2346C9.81376 13.3294 9.62349 13.3915 9.40604 13.421L9.51637 13.3032V13.6711C9.51637 13.7692 9.48439 13.851 9.42043 13.9164C9.35968 13.9818 9.27973 14.0145 9.1806 14.0145Z" fill="#3AC1FF"/>
<path d="M6.68931 4.68576C6.88448 4.4904 6.88448 4.17366 6.68931 3.9783C6.49415 3.78294 6.17773 3.78294 5.98256 3.9783L6.68931 4.68576ZM2.83408 7.33717C2.83408 7.61345 3.05783 7.83742 3.33383 7.83742L7.83156 7.83742C8.10756 7.83742 8.33131 7.61345 8.33131 7.33717C8.33131 7.06089 8.10756 6.83692 7.83156 6.83692H3.83358V2.8349C3.83358 2.55862 3.60983 2.33465 3.33383 2.33465C3.05783 2.33465 2.83408 2.55862 2.83408 2.8349L2.83408 7.33717ZM5.98256 3.9783L2.98046 6.98344L3.68721 7.6909L6.68931 4.68576L5.98256 3.9783Z" fill="#01C246"/>
<path d="M14.1544 15.4978C13.9593 15.6932 13.9593 16.0099 14.1544 16.2053C14.3496 16.4007 14.666 16.4007 14.8612 16.2053L14.1544 15.4978ZM18.0097 12.8464C18.0097 12.5701 17.7859 12.3462 17.5099 12.3462L13.0122 12.3462C12.7362 12.3462 12.5124 12.5701 12.5124 12.8464C12.5124 13.1227 12.7362 13.3467 13.0122 13.3467H17.0102V17.3487C17.0102 17.625 17.2339 17.8489 17.5099 17.8489C17.7859 17.8489 18.0097 17.625 18.0097 17.3487L18.0097 12.8464ZM14.8612 16.2053L17.8633 13.2002L17.1565 12.4927L14.1544 15.4978L14.8612 16.2053Z" fill="#01C246"/>
</svg>
