<svg width="187" height="149" viewBox="0 0 187 149" fill="none" xmlns="http://www.w3.org/2000/svg">
<g filter="url(#filter0_dd_1_528)">
<g clip-path="url(#clip0_1_528)">
<path d="M12 14C12 7.37259 17.3726 2 24 2H163C169.627 2 175 7.37258 175 14V115C175 121.627 169.627 127 163 127H24C17.3726 127 12 121.627 12 115V14Z" fill="#006AA7"/>
<path d="M151.49 231L85.6534 165.163C85.1207 164.631 85.1207 163.767 85.6534 163.236L151.49 97.3995C152.023 96.8668 152.887 96.8668 153.417 97.3995L219.254 163.236" stroke="white" stroke-opacity="0.3" stroke-width="5" stroke-miterlimit="10"/>
<path d="M39.2214 189.073L118.181 268.033C119.811 269.663 122.451 269.663 124.071 268.033L203.031 189.073C204.661 187.443 204.661 184.802 203.031 183.182L124.071 104.222C122.441 102.592 119.801 102.592 118.181 104.222L39.2214 183.182C37.5914 184.812 37.5914 187.453 39.2214 189.073Z" stroke="white" stroke-opacity="0.3" stroke-width="3.9234" stroke-miterlimit="10"/>
<path d="M121.572 5.28852L155.711 39.4277C157.808 41.5241 161.192 41.5241 163.288 39.4277L197.428 5.28852C199.524 3.19207 199.524 -0.192042 197.428 -2.28849L163.288 -36.4277C161.192 -38.5241 157.808 -38.5241 155.711 -36.4277L121.572 -2.28849C119.476 -0.202683 119.476 3.19207 121.572 5.28852Z" stroke="white" stroke-opacity="0.25" stroke-miterlimit="10"/>
<path d="M144.621 2.98758L158.017 16.3864C158.835 17.2045 160.173 17.2045 160.991 16.3864L174.387 2.98758C175.204 2.16942 175.204 0.830613 174.387 0.0124466L160.991 -13.3864C160.173 -14.2045 158.835 -14.2045 158.017 -13.3864L144.621 0.0124466C143.793 0.830613 143.793 2.15879 144.621 2.98758Z" stroke="white" stroke-opacity="0.25" stroke-miterlimit="10"/>
<path d="M6.91679 -95.9988L-66.832 -22.25L6.91679 51.4988L80.6656 -22.25L6.91679 -95.9988Z" stroke="white" stroke-opacity="0.25" stroke-miterlimit="10"/>
<path d="M2.53007 -95.9988L-71.2188 -22.25L2.53007 51.4988L76.2789 -22.25L2.53007 -95.9988Z" stroke="white" stroke-opacity="0.25" stroke-miterlimit="10"/>
<path d="M-1.86446 -95.9988L-75.6133 -22.25L-1.86446 51.4988L71.8844 -22.25L-1.86446 -95.9988Z" stroke="white" stroke-opacity="0.25" stroke-miterlimit="10"/>
<path d="M-6.25118 -95.9988L-80 -22.25L-6.25118 51.4988L67.4976 -22.25L-6.25118 -95.9988Z" stroke="white" stroke-opacity="0.25" stroke-miterlimit="10"/>
</g>
</g>
<defs>
<filter id="filter0_dd_1_528" x="0" y="0" width="187" height="149" filterUnits="userSpaceOnUse" color-interpolation-filters="sRGB">
<feFlood flood-opacity="0" result="BackgroundImageFix"/>
<feColorMatrix in="SourceAlpha" type="matrix" values="0 0 0 0 0 0 0 0 0 0 0 0 0 0 0 0 0 0 127 0" result="hardAlpha"/>
<feOffset dy="10"/>
<feGaussianBlur stdDeviation="6"/>
<feColorMatrix type="matrix" values="0 0 0 0 0 0 0 0 0 0 0 0 0 0 0.501961 0 0 0 0.04 0"/>
<feBlend mode="multiply" in2="BackgroundImageFix" result="effect1_dropShadow_1_528"/>
<feColorMatrix in="SourceAlpha" type="matrix" values="0 0 0 0 0 0 0 0 0 0 0 0 0 0 0 0 0 0 127 0" result="hardAlpha"/>
<feOffset dy="6"/>
<feGaussianBlur stdDeviation="3"/>
<feColorMatrix type="matrix" values="0 0 0 0 0 0 0 0 0 0 0 0 0 0 0.501961 0 0 0 0.04 0"/>
<feBlend mode="multiply" in2="effect1_dropShadow_1_528" result="effect2_dropShadow_1_528"/>
<feBlend mode="normal" in="SourceGraphic" in2="effect2_dropShadow_1_528" result="shape"/>
</filter>
<clipPath id="clip0_1_528">
<path d="M12 14C12 7.37259 17.3726 2 24 2H163C169.627 2 175 7.37258 175 14V115C175 121.627 169.627 127 163 127H24C17.3726 127 12 121.627 12 115V14Z" fill="white"/>
</clipPath>
</defs>
</svg>
