<svg width="20" height="21" viewBox="0 0 20 21" fill="none" xmlns="http://www.w3.org/2000/svg">
<path fill-rule="evenodd" clip-rule="evenodd" d="M3 10.4492C3 9.50653 3.73349 8.74232 4.6383 8.74232H15.3617C16.2665 8.74232 17 9.50653 17 10.4492V16.0354C17 16.9781 16.2665 17.7423 15.3617 17.7423H4.6383C3.73349 17.7423 3 16.9781 3 16.0354V10.4492ZM4.6383 9.67336C4.22702 9.67336 3.89362 10.0207 3.89362 10.4492V16.0354C3.89362 16.4639 4.22702 16.8113 4.6383 16.8113H15.3617C15.773 16.8113 16.1064 16.4639 16.1064 16.0354V10.4492C16.1064 10.0207 15.773 9.67336 15.3617 9.67336H4.6383Z" fill="#3AC1FF"/>
<path fill-rule="evenodd" clip-rule="evenodd" d="M4 7.24232C4 6.96618 4.20664 6.74232 4.46154 6.74232H15.5385C15.7934 6.74232 16 6.96618 16 7.24232C16 7.51847 15.7934 7.74232 15.5385 7.74232H4.46154C4.20664 7.74232 4 7.51847 4 7.24232Z" fill="#3AC1FF"/>
<path fill-rule="evenodd" clip-rule="evenodd" d="M5 5.24232C5 4.96618 5.21664 4.74232 5.48387 4.74232H14.5161C14.7834 4.74232 15 4.96618 15 5.24232C15 5.51847 14.7834 5.74232 14.5161 5.74232H5.48387C5.21664 5.74232 5 5.51847 5 5.24232Z" fill="#3AC1FF"/>
<path fill-rule="evenodd" clip-rule="evenodd" d="M10 11.7423C9.00589 11.7423 8.2 12.4139 8.2 13.2423C8.2 14.0708 9.00589 14.7423 10 14.7423C10.9941 14.7423 11.8 14.0708 11.8 13.2423C11.8 12.4139 10.9941 11.7423 10 11.7423ZM7 13.2423C7 11.8616 8.34315 10.7423 10 10.7423C11.6569 10.7423 13 11.8616 13 13.2423C13 14.623 11.6569 15.7423 10 15.7423C8.34315 15.7423 7 14.623 7 13.2423Z" fill="#3AC1FF"/>
<path fill-rule="evenodd" clip-rule="evenodd" d="M17 11.1798C17 11.4905 16.7761 11.7423 16.5 11.7423H16.1667C14.97 11.7423 14 10.651 14 9.30482C14 8.99416 14.2239 8.74232 14.5 8.74232C14.7761 8.74232 15 8.99416 15 9.30482C15 10.0297 15.5223 10.6173 16.1667 10.6173H16.5C16.7761 10.6173 17 10.8692 17 11.1798Z" fill="#3AC1FF"/>
<path fill-rule="evenodd" clip-rule="evenodd" d="M17 15.3048C17 14.9942 16.7761 14.7423 16.5 14.7423H16.1667C14.97 14.7423 14 15.8336 14 17.1798C14 17.4905 14.2239 17.7423 14.5 17.7423C14.7761 17.7423 15 17.4905 15 17.1798C15 16.455 15.5223 15.8673 16.1667 15.8673H16.5C16.7761 15.8673 17 15.6155 17 15.3048Z" fill="#3AC1FF"/>
<path fill-rule="evenodd" clip-rule="evenodd" d="M3 11.1798C3 11.4905 3.22386 11.7423 3.5 11.7423H3.83333C5.02995 11.7423 6 10.651 6 9.30482C6 8.99416 5.77614 8.74232 5.5 8.74232C5.22386 8.74232 5 8.99416 5 9.30482C5 10.0297 4.47767 10.6173 3.83333 10.6173H3.5C3.22386 10.6173 3 10.8692 3 11.1798Z" fill="#3AC1FF"/>
<path fill-rule="evenodd" clip-rule="evenodd" d="M3 15.3048C3 14.9942 3.22386 14.7423 3.5 14.7423H3.83333C5.02995 14.7423 6 15.8336 6 17.1798C6 17.4905 5.77614 17.7423 5.5 17.7423C5.22386 17.7423 5 17.4905 5 17.1798C5 16.455 4.47767 15.8673 3.83333 15.8673H3.5C3.22386 15.8673 3 15.6155 3 15.3048Z" fill="#3AC1FF"/>
</svg>
