<svg width="64" height="64" viewBox="0 0 64 64" fill="none" xmlns="http://www.w3.org/2000/svg">
<g filter="url(#filter0_d_1_578)">
<circle cx="32" cy="24" r="19.5" fill="white" stroke="#000080"/>
<path d="M34.858 29.082C36.7212 28.8614 38.5519 28.4217 40.312 27.772C38.8214 26.1208 37.9977 23.9745 38.001 21.75V21C38.001 19.4087 37.3689 17.8826 36.2436 16.7574C35.1184 15.6321 33.5923 15 32.001 15C30.4097 15 28.8836 15.6321 27.7584 16.7574C26.6331 17.8826 26.001 19.4087 26.001 21V21.75C26.004 23.9746 25.18 26.121 23.689 27.772C25.422 28.412 27.249 28.857 29.144 29.082M34.858 29.082C32.96 29.3071 31.042 29.3071 29.144 29.082M34.858 29.082C35.0021 29.5319 35.0379 30.0094 34.9626 30.4757C34.8872 30.942 34.7028 31.384 34.4244 31.7656C34.1459 32.1472 33.7813 32.4576 33.3602 32.6716C32.9391 32.8856 32.4734 32.9972 32.001 32.9972C31.5286 32.9972 31.0629 32.8856 30.6418 32.6716C30.2207 32.4576 29.8561 32.1472 29.5776 31.7656C29.2992 31.384 29.1148 30.942 29.0394 30.4757C28.9641 30.0094 28.9999 29.5319 29.144 29.082M23.125 19.5C23.407 17.825 24.1588 16.2644 25.293 15M38.709 15C39.8432 16.2644 40.595 17.825 40.877 19.5" stroke="#000080" stroke-linecap="round" stroke-linejoin="round"/>
<circle cx="38.5" cy="16.5" r="4.5" fill="#E92B2B"/>
</g>
<defs>
<filter id="filter0_d_1_578" x="0" y="0" width="64" height="64" filterUnits="userSpaceOnUse" color-interpolation-filters="sRGB">
<feFlood flood-opacity="0" result="BackgroundImageFix"/>
<feColorMatrix in="SourceAlpha" type="matrix" values="0 0 0 0 0 0 0 0 0 0 0 0 0 0 0 0 0 0 127 0" result="hardAlpha"/>
<feMorphology radius="4" operator="erode" in="SourceAlpha" result="effect1_dropShadow_1_578"/>
<feOffset dy="8"/>
<feGaussianBlur stdDeviation="8"/>
<feColorMatrix type="matrix" values="0 0 0 0 0 0 0 0 0 0 0 0 0 0 0.501961 0 0 0 0.08 0"/>
<feBlend mode="normal" in2="BackgroundImageFix" result="effect1_dropShadow_1_578"/>
<feBlend mode="normal" in="SourceGraphic" in2="effect1_dropShadow_1_578" result="shape"/>
</filter>
</defs>
</svg>
