<svg width="16" height="17" viewBox="0 0 16 17" fill="none" xmlns="http://www.w3.org/2000/svg">
<path fill-rule="evenodd" clip-rule="evenodd" d="M9.17667 12.029C9.17667 11.3828 9.70049 10.859 10.3467 10.859C10.8781 10.859 11.3267 11.2133 11.4693 11.6985C11.6649 11.6403 11.8721 11.609 12.0867 11.609C12.4163 11.609 12.7287 11.6828 13.0082 11.8149C12.8991 10.4404 11.7492 9.35899 10.3467 9.35899C8.87207 9.35899 7.67667 10.5544 7.67667 12.029C7.67667 13.4315 8.75807 14.5815 10.1326 14.6905C10.0005 14.411 9.92667 14.0986 9.92667 13.769C9.92667 13.5545 9.95794 13.3473 10.0162 13.1517C9.53093 13.009 9.17667 12.5604 9.17667 12.029Z" fill="#3AC1FF"/>
<path d="M14.1867 13.949C14.1867 15.0094 13.3271 15.869 12.2667 15.869C11.2063 15.869 10.3467 15.0094 10.3467 13.949C10.3467 12.8886 11.2063 12.029 12.2667 12.029C13.3271 12.029 14.1867 12.8886 14.1867 13.949Z" stroke="#3AC1FF" stroke-width="1.5"/>
<path d="M5.26 4.60899L5.0005 3.70074C4.81951 3.06725 5.39203 2.47533 6.03119 2.63512V2.63512C6.82414 2.83336 7.66185 2.7414 8.39292 2.37587L8.81952 2.16257C9.26325 1.94071 9.76577 2.33306 9.65815 2.81735L9.26 4.60899" stroke="#3AC1FF" stroke-width="1.5"/>
<path d="M2.86075 5.53772C2.86075 5.01741 3.28254 4.59562 3.80284 4.59562H10.7115C11.2319 4.59562 11.6536 5.01741 11.6536 5.53772C11.6536 6.05802 11.2319 6.47981 10.7115 6.47981H3.80284C3.28254 6.47981 2.86075 6.05802 2.86075 5.53772Z" stroke="#3AC1FF" stroke-width="1.5"/>
<path d="M10.0976 6.58822L11.1741 8.49205M9.12383 15.3811H5.38949C2.70238 15.3811 0.988793 12.649 2.26275 10.3959L4.41569 6.58822" stroke="#3AC1FF" stroke-width="1.5" stroke-linecap="round"/>
</svg>
