<svg width="18" height="19" viewBox="0 0 18 19" fill="none" xmlns="http://www.w3.org/2000/svg">
<path d="M11.2314 14.6533C11.9806 14.6533 12.5534 14.654 13.2195 14.6533C14.2908 14.6549 15.375 14.6173 16.3103 14.6533C16.3387 13.9811 16.1472 13.3179 15.7648 12.7643C15.3825 12.2107 14.83 11.7968 14.1913 11.5855C13.5525 11.3741 12.8623 11.3767 12.2251 11.5929C11.588 11.8091 11.0387 12.2271 10.6605 12.7836M11.2314 14.6533L11.2508 15.0861C11.2508 14.2513 11.0363 13.4661 10.6605 12.7836M11.2314 14.6533L11.2508 15.1678C9.60001 15.1678 8.15446 15.1707 6.4695 15.1678C4.72125 15.1678 3.375 15.1678 1.68825 15.1678L1.6875 15.0861C1.68693 14.0244 2.03971 12.9928 2.69024 12.1538C3.34076 11.3148 4.25203 10.7161 5.28037 10.4523C6.3087 10.1884 7.39562 10.2743 8.36975 10.6964C9.34388 11.1185 10.1498 11.8528 10.6605 12.7836M9.00075 5.52357C9.00075 6.1949 8.73407 6.83874 8.25936 7.31344C7.78466 7.78814 7.14083 8.05482 6.4695 8.05482C5.79817 8.05482 5.15434 7.78814 4.67964 7.31344C4.20494 6.83874 3.93825 6.1949 3.93825 5.52357C3.93825 4.85225 4.20494 4.20841 4.67964 3.73371C5.15434 3.25901 5.79817 2.99232 6.4695 2.99232C7.14083 2.99232 7.78466 3.25901 8.25936 3.73371C8.73407 4.20841 9.00075 4.85225 9.00075 5.52357ZM15.1883 7.21107C15.1883 7.73322 14.9808 8.23398 14.6116 8.60319C14.2424 8.9724 13.7416 9.17982 13.2195 9.17982C12.6974 9.17982 12.1966 8.9724 11.8274 8.60319C11.4582 8.23398 11.2508 7.73322 11.2508 7.21107C11.2508 6.68893 11.4582 6.18817 11.8274 5.81896C12.1966 5.44975 12.6974 5.24232 13.2195 5.24232C13.7416 5.24232 14.2424 5.44975 14.6116 5.81896C14.9808 6.18817 15.1883 6.68893 15.1883 7.21107Z" fill="#3AC1FF"/>
</svg>
