<svg width="20" height="21" viewBox="0 0 20 21" fill="none" xmlns="http://www.w3.org/2000/svg">
<rect x="3" y="13.1065" width="8.55941" height="2.72345" rx="1.36172" fill="#F6F6F6" stroke="#3AC1FF"/>
<rect x="4.55614" y="4.74232" width="8.55941" height="2.72345" rx="1.36172" stroke="#3AC1FF"/>
<rect x="3" y="7.46556" width="8.55941" height="2.72345" rx="1.36172" stroke="#3AC1FF"/>
<rect x="4.1671" y="10.1888" width="8.55941" height="2.72345" rx="1.36172" stroke="#3AC1FF"/>
<ellipse cx="12.4311" cy="12.8165" rx="4.56823" ry="4.57284" fill="#01C246" stroke="#3AC1FF"/>
<path d="M12.4548 15.8143C12.3393 15.8143 12.2418 15.7735 12.1622 15.6921C12.0825 15.6107 12.0427 15.5089 12.0427 15.3868V14.9348L12.2219 15.0997C11.9551 15.0875 11.7242 15.0529 11.5291 14.9959C11.3341 14.9389 11.1748 14.8819 11.0514 14.8249C10.9479 14.7761 10.8742 14.7068 10.8304 14.6173C10.7906 14.5277 10.7747 14.4361 10.7827 14.3425C10.7946 14.2488 10.8284 14.1633 10.8842 14.086C10.9399 14.0086 11.0116 13.9577 11.0992 13.9333C11.1907 13.9048 11.2962 13.917 11.4157 13.9699C11.4953 14.0147 11.6147 14.0615 11.774 14.1104C11.9372 14.1552 12.1383 14.1776 12.3771 14.1776C12.5444 14.1776 12.6757 14.1613 12.7713 14.1287C12.8708 14.0961 12.9405 14.0534 12.9803 14.0005C13.0241 13.9435 13.046 13.8824 13.046 13.8173C13.046 13.7562 13.0301 13.7053 12.9982 13.6646C12.9704 13.6198 12.9226 13.5811 12.8549 13.5486C12.7872 13.5119 12.6937 13.4793 12.5742 13.4508L11.8994 13.3043C11.5291 13.2188 11.2524 13.0763 11.0693 12.8768C10.8902 12.6732 10.8006 12.4106 10.8006 12.089C10.8006 11.8447 10.8583 11.6269 10.9738 11.4355C11.0932 11.2401 11.2584 11.0813 11.4694 10.9592C11.6844 10.837 11.9352 10.7597 12.2219 10.7271L12.0427 10.8309V10.4218C12.0427 10.2996 12.0825 10.1978 12.1622 10.1164C12.2418 10.035 12.3393 9.99428 12.4548 9.99428C12.5742 9.99428 12.6738 10.035 12.7534 10.1164C12.833 10.1978 12.8728 10.2996 12.8728 10.4218V10.8309L12.6937 10.7149C12.8449 10.719 13.0082 10.7454 13.1833 10.7943C13.3585 10.8391 13.5118 10.9022 13.6432 10.9836C13.7348 11.0325 13.7985 11.0996 13.8343 11.1851C13.8741 11.2706 13.888 11.3582 13.8761 11.4477C13.8681 11.5332 13.8363 11.6106 13.7805 11.6798C13.7288 11.749 13.6571 11.7958 13.5655 11.8203C13.478 11.8406 13.3725 11.8243 13.249 11.7714C13.1575 11.7307 13.054 11.6981 12.9385 11.6737C12.827 11.6452 12.6837 11.631 12.5085 11.631C12.2975 11.631 12.1343 11.6696 12.0188 11.747C11.9074 11.8243 11.8516 11.9241 11.8516 12.0462C11.8516 12.1277 11.8835 12.1969 11.9472 12.2539C12.0149 12.3068 12.1363 12.3536 12.3115 12.3943L12.9923 12.547C13.3705 12.6325 13.6492 12.775 13.8283 12.9745C14.0114 13.1699 14.103 13.4244 14.103 13.7379C14.103 13.9822 14.0453 14.1979 13.9298 14.3852C13.8144 14.5725 13.6531 14.7252 13.4461 14.8432C13.2431 14.9613 13.0062 15.0387 12.7355 15.0753L12.8728 14.9287V15.3868C12.8728 15.5089 12.833 15.6107 12.7534 15.6921C12.6777 15.7735 12.5782 15.8143 12.4548 15.8143Z" fill="white"/>
</svg>
