<svg width="20" height="20" viewBox="0 0 20 20" fill="none" xmlns="http://www.w3.org/2000/svg">
<path d="M0 4C0 1.79086 1.79086 0 4 0H16C18.2091 0 20 1.79086 20 4V16C20 18.2091 18.2091 20 16 20H4C1.79086 20 0 18.2091 0 16V4Z" fill="white"/>
<g clip-path="url(#clip0_1_570)">
<path d="M8.42188 2.03438C5.50312 2.17812 3.95625 2.77187 3.08125 4.0875C2.31875 5.23438 2 6.97188 2 10C2 13.0281 2.31875 14.7656 3.08125 15.9125C3.80625 17 4.99375 17.5906 6.96875 17.8406C7.88438 17.9562 8.43438 17.9844 10 17.9844C12.5875 17.9844 13.9281 17.8156 15.1031 17.3469C15.875 17.0406 16.4969 16.5437 16.925 15.9062C17.4969 15.0438 17.7969 13.9062 17.9438 12.0312C17.9969 11.3406 17.9969 8.65938 17.9438 7.96875C17.7969 6.08437 17.5 4.95937 16.9187 4.0875C16.1469 2.92812 14.8438 2.32812 12.6188 2.10938C11.5531 2.00625 9.69063 1.97187 8.42188 2.03438ZM12.1719 3.40312C15.5312 3.725 16.2969 4.49687 16.6 7.875C16.6281 8.17812 16.6406 8.875 16.6406 10C16.6406 11.125 16.6281 11.8219 16.6 12.125C16.2937 15.5125 15.5125 16.2937 12.125 16.6C11.5031 16.6562 8.49688 16.6562 7.875 16.6C4.4875 16.2937 3.70625 15.5125 3.4 12.125C3.34375 11.5031 3.34375 8.49687 3.4 7.875C3.6375 5.24687 4.17813 4.28125 5.6875 3.78438C6.35938 3.56563 7.10313 3.45312 8.5 3.3625C8.86562 3.34062 11.8469 3.37187 12.1719 3.40312Z" fill="#3AC1FF"/>
<path d="M11.4448 6.04063C11.1792 6.1375 11.2136 6.07813 9.7167 9.06875C8.47607 11.55 8.3042 11.875 8.26982 11.825C8.24795 11.7906 7.9667 11.2844 7.6417 10.6938C7.31982 10.1031 7.01045 9.57813 6.95732 9.525C6.78857 9.35313 6.7292 9.34375 5.92295 9.34375C5.3292 9.34375 5.16357 9.35313 5.06982 9.39063C4.56982 9.6 4.53857 10.325 5.0167 10.5875C5.08857 10.6281 5.22607 10.6438 5.61045 10.6563L6.11045 10.6719L6.93857 12.175C7.39482 13.0031 7.7917 13.7156 7.81982 13.7563C7.88857 13.8594 8.16982 14 8.30732 14C8.48545 14 8.66045 13.9313 8.78545 13.8125C8.87607 13.725 9.19482 13.1125 10.2948 10.9094C11.5292 8.44375 11.6979 8.125 11.7323 8.175C11.7542 8.20938 12.0386 8.71875 12.3604 9.30938C12.9698 10.4188 13.0729 10.5656 13.2792 10.6281C13.3479 10.6469 13.6761 10.6563 14.1479 10.65L14.9011 10.6406L15.0386 10.5469C15.3792 10.3063 15.4261 9.84688 15.1448 9.5375C15.0042 9.38125 14.9229 9.35938 14.3917 9.34375L13.8917 9.32813L13.0636 7.825C12.6073 6.99688 12.2104 6.28438 12.1823 6.24375C12.1542 6.2 12.0542 6.12813 11.9667 6.08125C11.7886 5.99375 11.6167 5.98125 11.4448 6.04063Z" fill="#3AC1FF"/>
</g>
<defs>
<clipPath id="clip0_1_570">
<rect width="16" height="16" fill="white" transform="translate(2 2)"/>
</clipPath>
</defs>
</svg>
