<svg width="17" height="17" viewBox="0 0 17 17" fill="none" xmlns="http://www.w3.org/2000/svg">
<g clip-path="url(#clip0_1_362)">
<path d="M15.2398 11.316C14.9363 11.1687 14.5743 11.3027 14.4312 11.6152C13.9085 12.7572 13.0869 13.7243 12.0549 14.4118C10.9964 15.1172 9.76705 15.4901 8.49997 15.4901C7.61506 15.4901 6.75689 15.3117 5.94932 14.96C5.16907 14.6202 4.46818 14.1334 3.86608 13.5135C3.26407 12.8935 2.79144 12.1717 2.46141 11.3681C2.1199 10.5366 1.94669 9.6528 1.94669 8.7414H2.38939C2.62749 8.7414 2.76295 8.4611 2.61957 8.26542L1.56936 6.8329C1.45397 6.67549 1.22437 6.67549 1.10899 6.8329L0.0586785 8.26562C-0.0848002 8.4613 0.0507611 8.7416 0.288862 8.7416H0.73156C0.73156 9.82134 0.937027 10.8691 1.34226 11.8557C1.73359 12.8085 2.2936 13.6639 3.00685 14.3984C3.72009 15.1329 4.55084 15.7096 5.47591 16.1126C6.43402 16.53 7.4514 16.7416 8.49988 16.7416C10.0018 16.7416 11.4593 16.2993 12.7149 15.4626C13.9373 14.648 14.9108 13.5021 15.5302 12.1488C15.6734 11.8361 15.5433 11.4634 15.2398 11.316Z" fill="#E53E3E"/>
<path d="M16.7096 8.74214H16.2669C16.2669 7.6624 16.0614 6.61468 15.6562 5.62801C15.2649 4.67534 14.7048 3.81983 13.9916 3.08532C13.2784 2.35081 12.4476 1.7741 11.5225 1.3711C10.5644 0.95378 9.54705 0.742188 8.49858 0.742188C6.99668 0.742188 5.53921 1.18446 4.28353 2.02119C3.06116 2.83574 2.08761 3.9816 1.46822 5.33498C1.32513 5.6476 1.45518 6.02037 1.75875 6.16773C2.06231 6.31509 2.42429 6.18105 2.56738 5.86854C3.09012 4.72655 3.9118 3.75947 4.94366 3.07179C6.00218 2.36642 7.23141 1.99355 8.49858 1.99355C9.38349 1.99355 10.2417 2.17193 11.0492 2.52362C11.8295 2.86348 12.5304 3.35021 13.1325 3.97017C13.7345 4.59013 14.2071 5.31191 14.5371 6.11553C14.8786 6.94708 15.0519 7.83084 15.0519 8.74224H14.6092C14.3711 8.74224 14.2356 9.02254 14.379 9.21822L15.4293 10.6509C15.5447 10.8083 15.7743 10.8083 15.8897 10.6509L16.94 9.21822C17.0833 9.02244 16.9477 8.74214 16.7096 8.74214Z" fill="#E53E3E"/>
<path d="M8.49899 3.98306C8.57179 3.98306 8.63088 3.92231 8.63088 3.84724V3.29598C8.63088 3.22101 8.57189 3.16016 8.49899 3.16016C8.42609 3.16016 8.3671 3.22091 8.3671 3.29598V3.84724C8.3671 3.92221 8.42619 3.98306 8.49899 3.98306Z" fill="#A1B1C9"/>
<path d="M5.99565 4.45799C6.01197 4.48703 6.04151 4.50323 6.07183 4.50323C6.0867 4.50323 6.10186 4.49936 6.11566 4.4911C6.15767 4.46615 6.17215 4.41076 6.14782 4.36741L5.98039 4.06871C5.95606 4.02546 5.90238 4.01055 5.86028 4.0356C5.81828 4.06056 5.8038 4.11594 5.82813 4.1593L5.99565 4.45799Z" fill="#A1B1C9"/>
<path d="M3.95799 6.1494L4.24803 6.32181C4.26184 6.33006 4.277 6.33394 4.29187 6.33394C4.32228 6.33394 4.35183 6.31774 4.36805 6.2887C4.39229 6.24545 4.3779 6.19006 4.3359 6.16501L4.04585 5.99259C4.00385 5.96763 3.95007 5.98245 3.92574 6.0257C3.9015 6.06895 3.91589 6.12434 3.95799 6.1494Z" fill="#A1B1C9"/>
<path d="M3.92574 11.4606C3.94206 11.4897 3.97161 11.5059 4.00193 11.5059C4.0168 11.5059 4.03195 11.502 4.04576 11.4938L4.33581 11.3213C4.37781 11.2964 4.39229 11.241 4.36796 11.1976C4.34363 11.1543 4.28995 11.1395 4.24785 11.1645L3.9578 11.3369C3.9159 11.362 3.90151 11.4173 3.92574 11.4606Z" fill="#A1B1C9"/>
<path d="M5.86033 13.452C5.87414 13.4603 5.8893 13.4641 5.90417 13.4641C5.93458 13.4641 5.96413 13.4479 5.98035 13.4189L6.14777 13.1202C6.17201 13.0769 6.15762 13.0216 6.11562 12.9965C6.07352 12.9715 6.01984 12.9864 5.99551 13.0296L5.82808 13.3283C5.80385 13.3717 5.81823 13.427 5.86033 13.452Z" fill="#A1B1C9"/>
<path d="M10.8837 12.9965C10.8417 13.0215 10.8272 13.0768 10.8516 13.1202L11.019 13.4189C11.0353 13.4479 11.0649 13.4641 11.0952 13.4641C11.11 13.4641 11.1252 13.4603 11.139 13.452C11.181 13.427 11.1955 13.3717 11.1712 13.3283L11.0037 13.0296C10.9795 12.9864 10.9257 12.9715 10.8837 12.9965Z" fill="#A1B1C9"/>
<path d="M12.6611 11.3213L12.9512 11.4937C12.965 11.5019 12.9801 11.5058 12.995 11.5058C13.0254 11.5058 13.055 11.4896 13.0712 11.4606C13.0954 11.4173 13.081 11.3619 13.039 11.3369L12.749 11.1645C12.7069 11.1395 12.6532 11.1543 12.6289 11.1976C12.6046 11.2409 12.619 11.2962 12.6611 11.3213Z" fill="#A1B1C9"/>
<path d="M12.7052 6.33399C12.7201 6.33399 12.7352 6.33011 12.749 6.32186L13.0391 6.14944C13.0811 6.12448 13.0956 6.0691 13.0712 6.02575C13.0469 5.98249 12.9932 5.96758 12.9511 5.99263L12.6611 6.16505C12.6191 6.19001 12.6046 6.24539 12.6289 6.28875C12.6452 6.31778 12.6748 6.33399 12.7052 6.33399Z" fill="#A1B1C9"/>
<path d="M10.9276 4.50319C10.958 4.50319 10.9876 4.48698 11.0038 4.45795L11.1712 4.15925C11.1954 4.116 11.1811 4.06062 11.1391 4.03556C11.0971 4.0106 11.0433 4.02542 11.0189 4.06867L10.8515 4.36737C10.8273 4.41062 10.8417 4.466 10.8837 4.49106C10.8976 4.49931 10.9127 4.50319 10.9276 4.50319Z" fill="#A1B1C9"/>
<path d="M3.74913 8.87712C3.82193 8.87712 3.88102 8.81637 3.88102 8.74129C3.88102 8.66632 3.82202 8.60547 3.74913 8.60547H3.21383C3.14103 8.60547 3.08194 8.66622 3.08194 8.74129C3.08194 8.81627 3.14093 8.87712 3.21383 8.87712H3.74913Z" fill="#A1B1C9"/>
<path d="M8.3671 13.6358V14.1871C8.3671 14.2621 8.42609 14.3229 8.49899 14.3229C8.57189 14.3229 8.63088 14.2622 8.63088 14.1871V13.6358C8.63088 13.5609 8.57189 13.5 8.49899 13.5C8.42609 13.5 8.3671 13.5609 8.3671 13.6358Z" fill="#A1B1C9"/>
<path d="M13.2529 8.87712H13.7882C13.861 8.87712 13.9201 8.81637 13.9201 8.74129C13.9201 8.66632 13.8611 8.60547 13.7882 8.60547H13.2529C13.1801 8.60547 13.121 8.66622 13.121 8.74129C13.1211 8.81637 13.1801 8.87712 13.2529 8.87712Z" fill="#A1B1C9"/>
<path d="M7.8671 8.74329C7.8671 9.10373 8.15087 9.39597 8.50087 9.39597C8.64175 9.39597 8.7718 9.34864 8.87695 9.26859L11.0333 10.3342C11.0931 10.3638 11.1663 10.3431 11.2023 10.2837C11.2411 10.2201 11.2222 10.1361 11.1604 10.0963L9.13282 8.78953C9.13388 8.77421 9.13455 8.7588 9.13455 8.74319C9.13455 8.48377 8.9875 8.25965 8.7746 8.15445L8.63277 4.64199C8.62977 4.57229 8.57532 4.51482 8.50638 4.51184C8.43358 4.50875 8.37207 4.56702 8.36908 4.64199C8.36908 4.64199 8.27301 7.02012 8.22714 8.15455C8.01415 8.25975 7.8671 8.48387 7.8671 8.74329Z" fill="#E53E3E"/>
</g>
<defs>
<clipPath id="clip0_1_362">
<rect width="17" height="16" fill="white" transform="translate(0 0.742188)"/>
</clipPath>
</defs>
</svg>
