<svg width="57" height="53" viewBox="0 0 57 53" fill="none" xmlns="http://www.w3.org/2000/svg">
<path d="M32.7099 14C32.7099 14.9946 32.3148 15.9484 31.6116 16.6517C30.9083 17.3549 29.9545 17.75 28.9599 17.75C27.9654 17.75 27.0115 17.3549 26.3083 16.6517C25.605 15.9484 25.2099 14.9946 25.2099 14C25.2099 13.0054 25.605 12.0516 26.3083 11.3483C27.0115 10.6451 27.9654 10.25 28.9599 10.25C29.9545 10.25 30.9083 10.6451 31.6116 11.3483C32.3148 12.0516 32.7099 13.0054 32.7099 14ZM21.4609 28.118C21.4931 26.1504 22.2973 24.2742 23.7001 22.894C25.103 21.5139 26.992 20.7405 28.9599 20.7405C30.9278 20.7405 32.8169 21.5139 34.2198 22.894C35.6226 24.2742 36.4268 26.1504 36.4589 28.118C33.9609 28.118 31.5481 28.1215 28.9599 28.118C26.2839 28.118 23.9609 28.118 21.4609 28.118Z" stroke="#221D05" stroke-width="1.5" stroke-linecap="round" stroke-linejoin="round"/>
<path d="M13.3485 49.472C12.8071 49.472 12.3031 49.3927 11.8365 49.234C11.3698 49.0847 10.9591 48.87 10.6045 48.59C10.2591 48.3193 9.98848 47.9927 9.79248 47.61C9.59648 47.2273 9.49848 46.8073 9.49848 46.35C9.49848 46.1633 9.51248 45.916 9.54048 45.608C9.57781 45.3 9.61981 44.9547 9.66648 44.572C9.72248 44.18 9.78314 43.7833 9.84848 43.382L10.9265 43.536C10.8238 44.1613 10.7398 44.7307 10.6745 45.244C10.6185 45.7573 10.5905 46.1213 10.5905 46.336C10.5905 46.756 10.7071 47.1247 10.9405 47.442C11.1738 47.7687 11.4958 48.0207 11.9065 48.198C12.3265 48.3847 12.8071 48.478 13.3485 48.478H17.3105C18.0198 48.478 18.5565 48.282 18.9205 47.89C19.2938 47.498 19.4805 46.924 19.4805 46.168V45.706H20.5585V46.182C20.5585 46.826 20.4325 47.3953 20.1805 47.89C19.9285 48.3847 19.5598 48.772 19.0745 49.052C18.5985 49.332 18.0105 49.472 17.3105 49.472H13.3485ZM18.6685 46C18.3511 46 18.0291 45.9673 17.7025 45.902C17.3851 45.8367 17.0678 45.7013 16.7505 45.496L17.3665 44.67C17.4971 44.754 17.6231 44.824 17.7445 44.88C17.8658 44.9267 18.0011 44.9593 18.1505 44.978C18.2998 44.9967 18.4725 45.006 18.6685 45.006H21.3145V46H18.6685ZM21.3145 46V45.006C21.3705 45.006 21.4171 45.02 21.4545 45.048C21.4918 45.0667 21.5198 45.0993 21.5385 45.146C21.5571 45.1833 21.5711 45.2347 21.5805 45.3C21.5898 45.356 21.5945 45.4213 21.5945 45.496C21.5945 45.5707 21.5898 45.6407 21.5805 45.706C21.5711 45.7713 21.5571 45.8273 21.5385 45.874C21.5198 45.9113 21.4918 45.944 21.4545 45.972C21.4171 45.9907 21.3705 46 21.3145 46ZM13.5305 52.02V50.76H14.6225V52.02H13.5305ZM15.4485 52.02V50.76H16.5405V52.02H15.4485ZM21.3115 46V45.006H23.3275L22.8235 45.412V39H23.9155V46H21.3115ZM21.3115 46C21.2555 46 21.2089 45.9907 21.1715 45.972C21.1342 45.944 21.1062 45.9113 21.0875 45.874C21.0689 45.8273 21.0549 45.7713 21.0455 45.706C21.0362 45.6407 21.0315 45.5707 21.0315 45.496C21.0315 45.3933 21.0409 45.3093 21.0595 45.244C21.0689 45.1693 21.0969 45.1133 21.1435 45.076C21.1809 45.0293 21.2369 45.006 21.3115 45.006V46ZM22.8235 48.52V47.26H23.9155V48.52H22.8235ZM27.4659 46V45.006H29.1739V46H27.4659ZM26.3879 46V35.962H27.4659V46H26.3879ZM29.1739 46V45.006C29.2299 45.006 29.2766 45.02 29.3139 45.048C29.3513 45.0667 29.3793 45.0993 29.3979 45.146C29.4166 45.1833 29.4306 45.2347 29.4399 45.3C29.4493 45.356 29.4539 45.4213 29.4539 45.496C29.4539 45.5707 29.4493 45.6407 29.4399 45.706C29.4306 45.7713 29.4166 45.8273 29.3979 45.874C29.3793 45.9113 29.3513 45.944 29.3139 45.972C29.2766 45.9907 29.2299 46 29.1739 46ZM39.7009 46V45.006H41.2129V46H39.7009ZM29.1729 46C29.1169 46 29.0702 45.9907 29.0329 45.972C28.9955 45.944 28.9675 45.9113 28.9489 45.874C28.9302 45.8273 28.9162 45.7713 28.9069 45.706C28.8975 45.6407 28.8929 45.5707 28.8929 45.496C28.8929 45.3933 28.9022 45.3093 28.9209 45.244C28.9302 45.1693 28.9582 45.1133 29.0049 45.076C29.0422 45.0293 29.0982 45.006 29.1729 45.006V46ZM36.5369 46C36.2195 46 35.9069 45.9393 35.5989 45.818C35.3002 45.6967 35.0109 45.5053 34.7309 45.244L35.4449 44.502C35.6595 44.6793 35.8509 44.81 36.0189 44.894C36.1869 44.9687 36.3595 45.006 36.5369 45.006H39.0289L38.6089 45.454V42.108C38.6089 41.94 38.5902 41.702 38.5529 41.394C38.5249 41.086 38.4782 40.7407 38.4129 40.358C38.3569 39.966 38.2869 39.574 38.2029 39.182L39.2669 39C39.3322 39.3267 39.3975 39.6907 39.4629 40.092C39.5282 40.4933 39.5842 40.876 39.6309 41.24C39.6775 41.5947 39.7009 41.884 39.7009 42.108V46H36.5369ZM29.1729 46V45.006H31.2169L30.9369 45.286V40.4H32.0149V46H29.1729ZM32.0149 46V45.006H33.5969C33.9142 45.006 34.1522 44.9593 34.3109 44.866C34.4789 44.7727 34.5955 44.586 34.6609 44.306C34.7262 44.026 34.7589 43.6153 34.7589 43.074V39.7H35.8509V43.074C35.8509 43.802 35.7715 44.3807 35.6129 44.81C35.4635 45.2393 35.2255 45.5473 34.8989 45.734C34.5722 45.9113 34.1382 46 33.5969 46H32.0149ZM41.2129 46V45.006C41.2689 45.006 41.3155 45.02 41.3529 45.048C41.3902 45.0667 41.4182 45.0993 41.4369 45.146C41.4555 45.1833 41.4695 45.2347 41.4789 45.3C41.4882 45.356 41.4929 45.4213 41.4929 45.496C41.4929 45.5707 41.4882 45.6407 41.4789 45.706C41.4695 45.7713 41.4555 45.8273 41.4369 45.874C41.4182 45.9113 41.3902 45.944 41.3529 45.972C41.3155 45.9907 41.2689 46 41.2129 46ZM41.2178 46V45.006H47.3918L47.0558 45.3V41.828C47.0558 41.2213 46.8644 40.7687 46.4818 40.47C46.1084 40.162 45.5344 40.008 44.7598 40.008C44.5171 40.008 44.1671 40.0313 43.7098 40.078C43.2524 40.1153 42.7718 40.1713 42.2678 40.246L42.1418 39.35C42.5244 39.2567 42.9444 39.1773 43.4018 39.112C43.8591 39.0373 44.3024 39 44.7318 39C45.4411 39 46.0478 39.112 46.5518 39.336C47.0651 39.5507 47.4571 39.868 47.7278 40.288C48.0078 40.708 48.1478 41.2213 48.1478 41.828V46H41.2178ZM41.2178 46C41.1618 46 41.1151 45.9907 41.0778 45.972C41.0404 45.944 41.0124 45.9113 40.9938 45.874C40.9751 45.8273 40.9611 45.7713 40.9518 45.706C40.9424 45.6407 40.9378 45.5707 40.9378 45.496C40.9378 45.3933 40.9471 45.3093 40.9658 45.244C40.9751 45.1693 41.0031 45.1133 41.0498 45.076C41.0871 45.0293 41.1431 45.006 41.2178 45.006V46Z" fill="#221D05"/>
</svg>
