<svg width="57" height="53" viewBox="0 0 57 53" fill="none" xmlns="http://www.w3.org/2000/svg">
<path d="M37.9609 20C37.9609 19.4033 37.7239 18.831 37.3019 18.409C36.88 17.9871 36.3077 17.75 35.7109 17.75H31.9609C31.9609 18.5456 31.6449 19.3087 31.0823 19.8713C30.5196 20.4339 29.7566 20.75 28.9609 20.75C28.1653 20.75 27.4022 20.4339 26.8396 19.8713C26.277 19.3087 25.9609 18.5456 25.9609 17.75H22.2109C21.6142 17.75 21.0419 17.9871 20.6199 18.409C20.198 18.831 19.9609 19.4033 19.9609 20M37.9609 20V26C37.9609 26.5967 37.7239 27.169 37.3019 27.591C36.88 28.0129 36.3077 28.25 35.7109 28.25H22.2109C21.6142 28.25 21.0419 28.0129 20.6199 27.591C20.198 27.169 19.9609 26.5967 19.9609 26V20M37.9609 20V17M19.9609 20V17M37.9609 17C37.9609 16.4033 37.7239 15.831 37.3019 15.409C36.88 14.9871 36.3077 14.75 35.7109 14.75H22.2109C21.6142 14.75 21.0419 14.9871 20.6199 15.409C20.198 15.831 19.9609 16.4033 19.9609 17M37.9609 17V14C37.9609 13.4033 37.7239 12.831 37.3019 12.409C36.88 11.9871 36.3077 11.75 35.7109 11.75H22.2109C21.6142 11.75 21.0419 11.9871 20.6199 12.409C20.198 12.831 19.9609 13.4033 19.9609 14V17" stroke="#221D05" stroke-width="1.5" stroke-linecap="round" stroke-linejoin="round"/>
<path d="M7.16879 49.472C6.62746 49.472 6.12346 49.3927 5.65679 49.234C5.19012 49.0847 4.77946 48.87 4.42479 48.59C4.07946 48.3193 3.80879 47.9927 3.61279 47.61C3.41679 47.2273 3.31879 46.8073 3.31879 46.35C3.31879 46.1633 3.33279 45.916 3.36079 45.608C3.39812 45.3 3.44012 44.9547 3.48679 44.572C3.54279 44.18 3.60346 43.7833 3.66879 43.382L4.74679 43.536C4.64412 44.1613 4.56012 44.7307 4.49479 45.244C4.43879 45.7573 4.41079 46.1213 4.41079 46.336C4.41079 46.756 4.52746 47.1247 4.76079 47.442C4.99412 47.7687 5.31612 48.0207 5.72679 48.198C6.14679 48.3847 6.62746 48.478 7.16879 48.478H11.1308C11.8401 48.478 12.3768 48.282 12.7408 47.89C13.1141 47.5073 13.3008 46.9193 13.3008 46.126C13.3008 45.7433 13.2401 45.4447 13.1188 45.23C13.0068 45.006 12.8015 44.8193 12.5028 44.67C12.2135 44.5207 11.7981 44.3667 11.2568 44.208C10.7808 44.068 10.3515 43.9327 9.96879 43.802C9.58612 43.6713 9.25946 43.5173 8.98879 43.34C8.71812 43.1627 8.50812 42.934 8.35879 42.654C8.21879 42.374 8.14879 42.01 8.14879 41.562C8.14879 40.9833 8.26546 40.5073 8.49879 40.134C8.74146 39.7513 9.08679 39.4667 9.53479 39.28C9.98279 39.0933 10.5241 39 11.1588 39L11.1168 39.994C10.6875 39.994 10.3328 40.05 10.0528 40.162C9.77279 40.2647 9.56279 40.428 9.42279 40.652C9.29212 40.8667 9.22679 41.1513 9.22679 41.506C9.22679 41.7953 9.27346 42.0287 9.36679 42.206C9.46012 42.3833 9.60479 42.5327 9.80079 42.654C9.99679 42.766 10.2395 42.8687 10.5288 42.962C10.8181 43.046 11.1588 43.144 11.5508 43.256C11.9895 43.3773 12.3815 43.5127 12.7268 43.662C13.0721 43.802 13.3661 43.9793 13.6088 44.194C13.8608 44.3993 14.0521 44.6653 14.1828 44.992C14.3135 45.3093 14.3788 45.706 14.3788 46.182C14.3788 46.826 14.2528 47.3953 14.0008 47.89C13.7488 48.3847 13.3801 48.772 12.8948 49.052C12.4188 49.332 11.8308 49.472 11.1308 49.472H7.16879ZM15.7088 46V39H16.8008V45.412L16.2968 45.006H18.3128V46H15.7088ZM11.1168 39.994L11.1588 39H15.7088V39.994H11.1168ZM18.3128 46V45.006C18.3688 45.006 18.4155 45.02 18.4528 45.048C18.4901 45.0667 18.5181 45.0993 18.5368 45.146C18.5555 45.1833 18.5695 45.2347 18.5788 45.3C18.5881 45.356 18.5928 45.4213 18.5928 45.496C18.5928 45.5707 18.5881 45.6407 18.5788 45.706C18.5695 45.7713 18.5555 45.8273 18.5368 45.874C18.5181 45.9113 18.4901 45.944 18.4528 45.972C18.4155 45.9907 18.3688 46 18.3128 46ZM13.8048 37.74V36.48H14.8968V37.74H13.8048ZM15.7228 37.74V36.48H16.8148V37.74H15.7228ZM7.35079 52.02V50.76H8.44279V52.02H7.35079ZM9.26879 52.02V50.76H10.3608V52.02H9.26879ZM27.2914 46V45.006H28.8034V46H27.2914ZM18.3174 46V45.006H27.5994L26.5914 45.916V42.626C26.5914 42.038 26.5074 41.5527 26.3394 41.17C26.1807 40.778 25.9381 40.484 25.6114 40.288C25.294 40.092 24.8927 39.994 24.4074 39.994C23.9967 39.994 23.614 40.064 23.2594 40.204C22.914 40.3347 22.592 40.512 22.2934 40.736C21.9947 40.9507 21.7147 41.1933 21.4534 41.464C21.2014 41.7253 20.968 41.9913 20.7534 42.262C20.5387 42.5327 20.3427 42.78 20.1654 43.004L19.8014 42.01C20.0907 41.646 20.3847 41.2867 20.6834 40.932C20.982 40.5773 21.3087 40.2553 21.6634 39.966C22.018 39.6767 22.4194 39.4433 22.8674 39.266C23.3154 39.0887 23.8287 39 24.4074 39C25.0701 39 25.6114 39.112 26.0314 39.336C26.4607 39.56 26.792 39.8587 27.0254 40.232C27.268 40.596 27.436 40.988 27.5294 41.408C27.6227 41.828 27.6694 42.234 27.6694 42.626V46H18.3174ZM19.2414 45.006V35.962H20.3334V45.006H19.2414ZM18.3174 46C18.2614 46 18.2147 45.9907 18.1774 45.972C18.14 45.944 18.112 45.9113 18.0934 45.874C18.0747 45.8273 18.0607 45.7713 18.0514 45.706C18.042 45.6407 18.0374 45.5707 18.0374 45.496C18.0374 45.3933 18.0467 45.3093 18.0654 45.244C18.0747 45.1693 18.1027 45.1133 18.1494 45.076C18.1867 45.0293 18.2427 45.006 18.3174 45.006V46ZM28.8034 46V45.006C28.8594 45.006 28.9061 45.02 28.9434 45.048C28.9807 45.0667 29.0087 45.0993 29.0274 45.146C29.046 45.1833 29.06 45.2347 29.0694 45.3C29.0787 45.356 29.0834 45.4213 29.0834 45.496C29.0834 45.5707 29.0787 45.6407 29.0694 45.706C29.06 45.7713 29.046 45.8273 29.0274 45.874C29.0087 45.9113 28.9807 45.944 28.9434 45.972C28.9061 45.9907 28.8594 46 28.8034 46ZM23.0634 37.74V36.48H24.1554V37.74H23.0634ZM36.2377 46V45.006H37.7497V46H36.2377ZM28.8037 46C28.7477 46 28.701 45.9907 28.6637 45.972C28.6264 45.944 28.5984 45.9113 28.5797 45.874C28.561 45.8273 28.547 45.7713 28.5377 45.706C28.5284 45.6407 28.5237 45.5707 28.5237 45.496C28.5237 45.3933 28.533 45.3093 28.5517 45.244C28.561 45.1693 28.589 45.1133 28.6357 45.076C28.673 45.0293 28.729 45.006 28.8037 45.006V46ZM28.8037 46V45.006H35.8737L35.1457 45.636V39.518L35.7197 39.994H33.3397C32.7984 39.994 32.3784 40.0593 32.0797 40.19C31.7904 40.3207 31.5897 40.568 31.4777 40.932C31.3657 41.2867 31.3097 41.8093 31.3097 42.5C31.3097 43.1907 31.3657 43.718 31.4777 44.082C31.5897 44.4367 31.7904 44.6793 32.0797 44.81C32.3784 44.9407 32.7984 45.006 33.3397 45.006V45.72C32.5277 45.72 31.893 45.622 31.4357 45.426C30.9877 45.2207 30.6704 44.8847 30.4837 44.418C30.3064 43.942 30.2177 43.3027 30.2177 42.5C30.2177 41.6973 30.3064 41.0393 30.4837 40.526C30.6704 40.0033 30.9877 39.6207 31.4357 39.378C31.893 39.126 32.5277 39 33.3397 39H36.2377V46H28.8037ZM37.7497 46V45.006C37.8057 45.006 37.8524 45.02 37.8897 45.048C37.927 45.0667 37.955 45.0993 37.9737 45.146C37.9924 45.1833 38.0064 45.2347 38.0157 45.3C38.025 45.356 38.0297 45.4213 38.0297 45.496C38.0297 45.5707 38.025 45.6407 38.0157 45.706C38.0064 45.7713 37.9924 45.8273 37.9737 45.874C37.955 45.9113 37.927 45.944 37.8897 45.972C37.8524 45.9907 37.8057 46 37.7497 46ZM33.0037 37.74V36.48H34.0957V37.74H33.0037ZM44.6751 46V45.006H46.1871V46H44.6751ZM37.7451 46C37.6891 46 37.6425 45.9907 37.6051 45.972C37.5678 45.944 37.5398 45.9113 37.5211 45.874C37.5025 45.8273 37.4885 45.7713 37.4791 45.706C37.4698 45.6407 37.4651 45.5707 37.4651 45.496C37.4651 45.3933 37.4745 45.3093 37.4931 45.244C37.5025 45.1693 37.5305 45.1133 37.5771 45.076C37.6145 45.0293 37.6705 45.006 37.7451 45.006V46ZM37.7451 46V45.006H43.9191L43.5831 45.3V41.828C43.5831 41.2213 43.3918 40.7687 43.0091 40.47C42.6358 40.162 42.0618 40.008 41.2871 40.008C41.0445 40.008 40.6945 40.0313 40.2371 40.078C39.7798 40.1153 39.2991 40.1713 38.7951 40.246L38.6691 39.35C39.0518 39.2567 39.4718 39.1773 39.9291 39.112C40.3865 39.0373 40.8298 39 41.2591 39C41.9685 39 42.5751 39.112 43.0791 39.336C43.5925 39.5507 43.9845 39.868 44.2551 40.288C44.5351 40.708 44.6751 41.2213 44.6751 41.828V46H37.7451ZM46.1871 46V45.006C46.2431 45.006 46.2898 45.02 46.3271 45.048C46.3645 45.0667 46.3925 45.0993 46.4111 45.146C46.4298 45.1833 46.4438 45.2347 46.4531 45.3C46.4625 45.356 46.4671 45.4213 46.4671 45.496C46.4671 45.5707 46.4625 45.6407 46.4531 45.706C46.4438 45.7713 46.4298 45.8273 46.4111 45.874C46.3925 45.9113 46.3645 45.944 46.3271 45.972C46.2898 45.9907 46.2431 46 46.1871 46ZM46.1807 46V45.006H53.8387L53.0267 45.58V42.57C53.0267 41.9167 52.952 41.4033 52.8027 41.03C52.6533 40.6567 52.3967 40.3907 52.0327 40.232C51.678 40.0733 51.1927 39.994 50.5767 39.994C50.1847 39.994 49.7927 40.022 49.4007 40.078C49.018 40.134 48.7193 40.2087 48.5047 40.302L49.1627 39.63C49.1067 39.854 49.0507 40.1387 48.9947 40.484C48.9387 40.82 48.892 41.184 48.8547 41.576C48.8173 41.968 48.7987 42.36 48.7987 42.752C48.7987 43.1533 48.8173 43.5453 48.8547 43.928C48.892 44.3107 48.934 44.642 48.9807 44.922C49.0273 45.202 49.0647 45.398 49.0927 45.51L48.0567 45.804C48.0193 45.6827 47.9727 45.4727 47.9167 45.174C47.87 44.8753 47.8233 44.516 47.7767 44.096C47.7393 43.676 47.7207 43.228 47.7207 42.752C47.7207 42.2947 47.7393 41.8513 47.7767 41.422C47.8233 40.9833 47.8747 40.5867 47.9307 40.232C47.996 39.8773 48.0567 39.5927 48.1127 39.378C48.318 39.294 48.6447 39.21 49.0927 39.126C49.5407 39.042 50.0353 39 50.5767 39C51.3607 39 52.014 39.1167 52.5367 39.35C53.0687 39.5833 53.4653 39.9613 53.7267 40.484C53.988 40.9973 54.1187 41.6927 54.1187 42.57V46H46.1807ZM46.1807 46C46.1247 46 46.078 45.9907 46.0407 45.972C46.0033 45.944 45.9753 45.9113 45.9567 45.874C45.938 45.8273 45.924 45.7713 45.9147 45.706C45.9053 45.6407 45.9007 45.5707 45.9007 45.496C45.9007 45.3933 45.91 45.3093 45.9287 45.244C45.938 45.1693 45.966 45.1133 46.0127 45.076C46.05 45.0293 46.106 45.006 46.1807 45.006V46Z" fill="#221D05"/>
</svg>
