<svg width="57" height="50" viewBox="0 0 57 50" fill="none" xmlns="http://www.w3.org/2000/svg">
<path d="M19.2109 19.9991L28.1649 11.0441C28.6049 10.6051 29.3169 10.6051 29.7559 11.0441L38.7109 19.9991M21.4609 17.7491V27.8741C21.4609 28.4951 21.9649 28.9991 22.5859 28.9991H26.7109V24.1241C26.7109 23.5031 27.2149 22.9991 27.8359 22.9991H30.0859C30.7069 22.9991 31.2109 23.5031 31.2109 24.1241V28.9991H35.3359C35.9569 28.9991 36.4609 28.4951 36.4609 27.8741V17.7491M25.2109 28.9991H33.4609" stroke="#221D05" stroke-width="1.5" stroke-linecap="round" stroke-linejoin="round"/>
<path d="M10.6859 46C9.87391 46 9.23924 45.8787 8.78191 45.636C8.33391 45.384 8.01657 45.0013 7.82991 44.488C7.65257 43.9653 7.56391 43.3027 7.56391 42.5C7.56391 41.6973 7.65257 41.0393 7.82991 40.526C8.01657 40.0033 8.33391 39.6207 8.78191 39.378C9.23924 39.126 9.87391 39 10.6859 39H13.5839V45.44H12.4919V39.518L13.0519 39.994H10.6859C10.1446 39.994 9.72457 40.0593 9.42591 40.19C9.13657 40.3207 8.93591 40.568 8.82391 40.932C8.71191 41.2867 8.65591 41.8093 8.65591 42.5C8.65591 43.1907 8.71191 43.718 8.82391 44.082C8.93591 44.4367 9.13657 44.6793 9.42591 44.81C9.72457 44.9407 10.1446 45.006 10.6859 45.006H15.0959V46H10.6859ZM15.0959 46V45.006C15.1519 45.006 15.1986 45.02 15.2359 45.048C15.2732 45.0667 15.3012 45.0993 15.3199 45.146C15.3386 45.1833 15.3526 45.2347 15.3619 45.3C15.3712 45.356 15.3759 45.4213 15.3759 45.496C15.3759 45.5707 15.3712 45.6407 15.3619 45.706C15.3526 45.7713 15.3386 45.8273 15.3199 45.874C15.3012 45.9113 15.2732 45.944 15.2359 45.972C15.1986 45.9907 15.1519 46 15.0959 46ZM9.32791 37.74V36.48H10.4199V37.74H9.32791ZM11.2459 37.74V36.48H12.3379V37.74H11.2459ZM17.7017 46V45.006H19.2137V46H17.7017ZM19.2137 46V45.006C19.2697 45.006 19.3163 45.02 19.3537 45.048C19.391 45.0667 19.419 45.0993 19.4377 45.146C19.4563 45.1833 19.4703 45.2347 19.4797 45.3C19.489 45.356 19.4937 45.4213 19.4937 45.496C19.4937 45.5707 19.489 45.6407 19.4797 45.706C19.4703 45.7713 19.4563 45.8273 19.4377 45.874C19.419 45.9113 19.391 45.944 19.3537 45.972C19.3163 45.9907 19.2697 46 19.2137 46ZM15.0977 46C15.0417 46 14.995 45.9907 14.9577 45.972C14.9203 45.944 14.8923 45.9113 14.8737 45.874C14.855 45.8273 14.841 45.7713 14.8317 45.706C14.8223 45.6407 14.8177 45.5707 14.8177 45.496C14.8177 45.3933 14.827 45.3093 14.8457 45.244C14.855 45.1693 14.883 45.1133 14.9297 45.076C14.967 45.0293 15.023 45.006 15.0977 45.006V46ZM15.0977 46V45.006H17.1137L16.6097 45.412V39H17.7017V46H15.0977ZM15.6577 48.52V47.26H16.7497V48.52H15.6577ZM17.5757 48.52V47.26H18.6677V48.52H17.5757ZM29.7409 46V45.006H31.2529V46H29.7409ZM19.2129 46C19.1569 46 19.1102 45.9907 19.0729 45.972C19.0356 45.944 19.0076 45.9113 18.9889 45.874C18.9702 45.8273 18.9562 45.7713 18.9469 45.706C18.9376 45.6407 18.9329 45.5707 18.9329 45.496C18.9329 45.3933 18.9422 45.3093 18.9609 45.244C18.9702 45.1693 18.9982 45.1133 19.0449 45.076C19.0822 45.0293 19.1382 45.006 19.2129 45.006V46ZM26.5769 46C26.2596 46 25.9469 45.9393 25.6389 45.818C25.3402 45.6967 25.0509 45.5053 24.7709 45.244L25.4849 44.502C25.6996 44.6793 25.8909 44.81 26.0589 44.894C26.2269 44.9687 26.3996 45.006 26.5769 45.006H29.0689L28.6489 45.454V42.108C28.6489 41.94 28.6302 41.702 28.5929 41.394C28.5649 41.086 28.5182 40.7407 28.4529 40.358C28.3969 39.966 28.3269 39.574 28.2429 39.182L29.3069 39C29.3722 39.3267 29.4376 39.6907 29.5029 40.092C29.5682 40.4933 29.6242 40.876 29.6709 41.24C29.7176 41.5947 29.7409 41.884 29.7409 42.108V46H26.5769ZM19.2129 46V45.006H21.2569L20.9769 45.286V40.4H22.0549V46H19.2129ZM22.0549 46V45.006H23.6369C23.9542 45.006 24.1922 44.9593 24.3509 44.866C24.5189 44.7727 24.6356 44.586 24.7009 44.306C24.7662 44.026 24.7989 43.6153 24.7989 43.074V39.7H25.8909V43.074C25.8909 43.802 25.8116 44.3807 25.6529 44.81C25.5036 45.2393 25.2656 45.5473 24.9389 45.734C24.6122 45.9113 24.1782 46 23.6369 46H22.0549ZM31.2529 46V45.006C31.3089 45.006 31.3556 45.02 31.3929 45.048C31.4302 45.0667 31.4582 45.0993 31.4769 45.146C31.4956 45.1833 31.5096 45.2347 31.5189 45.3C31.5282 45.356 31.5329 45.4213 31.5329 45.496C31.5329 45.5707 31.5282 45.6407 31.5189 45.706C31.5096 45.7713 31.4956 45.8273 31.4769 45.874C31.4582 45.9113 31.4302 45.944 31.3929 45.972C31.3556 45.9907 31.3089 46 31.2529 46ZM33.8618 46V45.006H35.3738V46H33.8618ZM35.3738 46V45.006C35.4298 45.006 35.4765 45.02 35.5138 45.048C35.5511 45.0667 35.5791 45.0993 35.5978 45.146C35.6165 45.1833 35.6305 45.2347 35.6398 45.3C35.6491 45.356 35.6538 45.4213 35.6538 45.496C35.6538 45.5707 35.6491 45.6407 35.6398 45.706C35.6305 45.7713 35.6165 45.8273 35.5978 45.874C35.5791 45.9113 35.5511 45.944 35.5138 45.972C35.4765 45.9907 35.4298 46 35.3738 46ZM31.2578 46C31.2018 46 31.1551 45.9907 31.1178 45.972C31.0805 45.944 31.0525 45.9113 31.0338 45.874C31.0151 45.8273 31.0011 45.7713 30.9918 45.706C30.9825 45.6407 30.9778 45.5707 30.9778 45.496C30.9778 45.3933 30.9871 45.3093 31.0058 45.244C31.0151 45.1693 31.0431 45.1133 31.0898 45.076C31.1271 45.0293 31.1831 45.006 31.2578 45.006V46ZM31.2578 46V45.006H33.2738L32.7698 45.412V39H33.8618V46H31.2578ZM31.8178 48.52V47.26H32.9098V48.52H31.8178ZM33.7358 48.52V47.26H34.8278V48.52H33.7358ZM35.373 46V45.006H37.389L36.885 45.412V39H37.977V46H35.373ZM35.373 46C35.317 46 35.2704 45.9907 35.233 45.972C35.1957 45.944 35.1677 45.9113 35.149 45.874C35.1304 45.8273 35.1164 45.7713 35.107 45.706C35.0977 45.6407 35.093 45.5707 35.093 45.496C35.093 45.3933 35.1024 45.3093 35.121 45.244C35.1304 45.1693 35.1584 45.1133 35.205 45.076C35.2424 45.0293 35.2984 45.006 35.373 45.006V46ZM36.773 37.74C36.6237 37.5533 36.507 37.3713 36.423 37.194C36.3484 37.0167 36.311 36.83 36.311 36.634C36.311 36.3633 36.3764 36.1207 36.507 35.906C36.647 35.6913 36.829 35.5233 37.053 35.402C37.277 35.2807 37.5197 35.22 37.781 35.22C37.9304 35.22 38.0797 35.2433 38.229 35.29C38.3784 35.3273 38.509 35.3833 38.621 35.458L38.257 36.088C38.1824 36.0413 38.1077 36.0133 38.033 36.004C37.9677 35.9853 37.8977 35.976 37.823 35.976C37.6084 35.976 37.4357 36.0367 37.305 36.158C37.1837 36.2793 37.123 36.438 37.123 36.634C37.123 36.7553 37.1464 36.872 37.193 36.984C37.249 37.096 37.3284 37.2173 37.431 37.348L36.773 37.74ZM36.045 37.74V36.998H38.803V37.74H36.045ZM41.5135 46V45.006H43.3055V46H41.5135ZM39.2315 49.094C39.1101 49.094 38.9841 49.0847 38.8535 49.066C38.7135 49.0567 38.5781 49.0473 38.4475 49.038L38.5735 48.044C38.7041 48.0533 38.8255 48.0627 38.9375 48.072C39.0495 48.0907 39.1475 48.1 39.2315 48.1C39.6701 48.1 40.0248 47.932 40.2955 47.596C40.5661 47.2693 40.7015 46.812 40.7015 46.224V39H41.7935V46.224C41.7935 46.7933 41.6815 47.2927 41.4575 47.722C41.2428 48.1607 40.9441 48.4967 40.5615 48.73C40.1788 48.9727 39.7355 49.094 39.2315 49.094ZM43.3055 46V45.006C43.3615 45.006 43.4081 45.02 43.4455 45.048C43.4828 45.0667 43.5108 45.0993 43.5295 45.146C43.5481 45.1833 43.5621 45.2347 43.5715 45.3C43.5808 45.356 43.5855 45.4213 43.5855 45.496C43.5855 45.5707 43.5808 45.6407 43.5715 45.706C43.5621 45.7713 43.5481 45.8273 43.5295 45.874C43.5108 45.9113 43.4828 45.944 43.4455 45.972C43.4081 45.9907 43.3615 46 43.3055 46ZM44.9967 46V35.962H46.0887V46H44.9967ZM43.3027 46V45.006H44.9967V46H43.3027ZM43.3027 46C43.2467 46 43.2001 45.9907 43.1627 45.972C43.1254 45.944 43.0974 45.9113 43.0787 45.874C43.0601 45.8273 43.0461 45.7713 43.0367 45.706C43.0274 45.6407 43.0227 45.5707 43.0227 45.496C43.0227 45.3933 43.0321 45.3093 43.0507 45.244C43.0601 45.1693 43.0881 45.1133 43.1347 45.076C43.1721 45.0293 43.2281 45.006 43.3027 45.006V46ZM48.5022 46V35.962H49.5802V46H48.5022Z" fill="#221D05"/>
</svg>
