<svg width="57" height="50" viewBox="0 0 57 50" fill="none" xmlns="http://www.w3.org/2000/svg">
<g clip-path="url(#clip0_1_583)">
<path d="M20.9609 14L36.9609 14" stroke="#221D05" stroke-width="2" stroke-linecap="round" stroke-linejoin="round"/>
<path d="M20.9609 20L36.9609 20" stroke="#221D05" stroke-width="2" stroke-linecap="round" stroke-linejoin="round"/>
<path d="M20.9609 26L36.9609 26" stroke="#221D05" stroke-width="2" stroke-linecap="round" stroke-linejoin="round"/>
</g>
<path d="M18.1362 46V45.006H19.6482V46H18.1362ZM12.7182 46V45.006H17.9402L17.0442 45.804V42.752C17.0442 42.0613 16.9649 41.5153 16.8062 41.114C16.6475 40.7127 16.3862 40.428 16.0222 40.26C15.6675 40.0827 15.1869 39.994 14.5802 39.994H13.4462V39H14.5802C15.3269 39 15.9662 39.1167 16.4982 39.35C17.0302 39.5833 17.4362 39.9753 17.7162 40.526C17.9962 41.0673 18.1362 41.8093 18.1362 42.752V46H12.7182ZM19.6482 46V45.006C19.7042 45.006 19.7509 45.02 19.7882 45.048C19.8255 45.0667 19.8535 45.0993 19.8722 45.146C19.8909 45.1833 19.9049 45.2347 19.9142 45.3C19.9235 45.356 19.9282 45.4213 19.9282 45.496C19.9282 45.5707 19.9235 45.6407 19.9142 45.706C19.9049 45.7713 19.8909 45.8273 19.8722 45.874C19.8535 45.9113 19.8255 45.944 19.7882 45.972C19.7509 45.9907 19.7042 46 19.6482 46ZM19.6504 46V45.006H21.6664L21.1624 45.412V39H22.2544V46H19.6504ZM19.6504 46C19.5944 46 19.5477 45.9907 19.5104 45.972C19.4731 45.944 19.4451 45.9113 19.4264 45.874C19.4077 45.8273 19.3937 45.7713 19.3844 45.706C19.3751 45.6407 19.3704 45.5707 19.3704 45.496C19.3704 45.3933 19.3797 45.3093 19.3984 45.244C19.4077 45.1693 19.4357 45.1133 19.4824 45.076C19.5197 45.0293 19.5757 45.006 19.6504 45.006V46ZM20.2104 48.52V47.26H21.3024V48.52H20.2104ZM22.1284 48.52V47.26H23.2204V48.52H22.1284ZM26.9119 46V45.006H28.7039V46H26.9119ZM24.6299 49.094C24.5086 49.094 24.3826 49.0847 24.2519 49.066C24.1119 49.0567 23.9766 49.0473 23.8459 49.038L23.9719 48.044C24.1026 48.0533 24.2239 48.0627 24.3359 48.072C24.4479 48.0907 24.5459 48.1 24.6299 48.1C25.0686 48.1 25.4232 47.932 25.6939 47.596C25.9646 47.2693 26.0999 46.812 26.0999 46.224V39H27.1919V46.224C27.1919 46.7933 27.0799 47.2927 26.8559 47.722C26.6412 48.1607 26.3426 48.4967 25.9599 48.73C25.5772 48.9727 25.1339 49.094 24.6299 49.094ZM28.7039 46V45.006C28.7599 45.006 28.8066 45.02 28.8439 45.048C28.8812 45.0667 28.9092 45.0993 28.9279 45.146C28.9466 45.1833 28.9606 45.2347 28.9699 45.3C28.9792 45.356 28.9839 45.4213 28.9839 45.496C28.9839 45.5707 28.9792 45.6407 28.9699 45.706C28.9606 45.7713 28.9466 45.8273 28.9279 45.874C28.9092 45.9113 28.8812 45.944 28.8439 45.972C28.8066 45.9907 28.7599 46 28.7039 46ZM26.0999 37.74V36.48H27.1919V37.74H26.0999ZM36.6392 46V45.006H38.1512V46H36.6392ZM28.7012 46C28.6452 46 28.5985 45.9907 28.5612 45.972C28.5238 45.944 28.4958 45.9113 28.4772 45.874C28.4585 45.8273 28.4445 45.7713 28.4352 45.706C28.4258 45.6407 28.4212 45.5707 28.4212 45.496C28.4212 45.3933 28.4305 45.3093 28.4492 45.244C28.4585 45.1693 28.4865 45.1133 28.5332 45.076C28.5705 45.0293 28.6265 45.006 28.7012 45.006V46ZM28.7012 46V45.006H36.3592L35.5472 45.58V42.57C35.5472 41.9167 35.4725 41.4033 35.3232 41.03C35.1738 40.6567 34.9172 40.3907 34.5532 40.232C34.1985 40.0733 33.7132 39.994 33.0972 39.994C32.7052 39.994 32.3132 40.022 31.9212 40.078C31.5385 40.134 31.2398 40.2087 31.0252 40.302L31.6832 39.63C31.6272 39.854 31.5712 40.1387 31.5152 40.484C31.4592 40.82 31.4125 41.184 31.3752 41.576C31.3378 41.968 31.3192 42.36 31.3192 42.752C31.3192 43.1533 31.3378 43.5453 31.3752 43.928C31.4125 44.3107 31.4545 44.642 31.5012 44.922C31.5478 45.202 31.5852 45.398 31.6132 45.51L30.5772 45.804C30.5398 45.6827 30.4932 45.4727 30.4372 45.174C30.3905 44.8753 30.3438 44.516 30.2972 44.096C30.2598 43.676 30.2412 43.228 30.2412 42.752C30.2412 42.2947 30.2598 41.8513 30.2972 41.422C30.3438 40.9833 30.3952 40.5867 30.4512 40.232C30.5165 39.8773 30.5772 39.5927 30.6332 39.378C30.8385 39.294 31.1652 39.21 31.6132 39.126C32.0612 39.042 32.5558 39 33.0972 39C33.8812 39 34.5345 39.1167 35.0572 39.35C35.5892 39.5833 35.9858 39.9613 36.2472 40.484C36.5085 40.9973 36.6392 41.6927 36.6392 42.57V46H28.7012ZM38.1512 46V45.006C38.2072 45.006 38.2538 45.02 38.2912 45.048C38.3285 45.0667 38.3565 45.0993 38.3752 45.146C38.3938 45.1833 38.4078 45.2347 38.4172 45.3C38.4265 45.356 38.4312 45.4213 38.4312 45.496C38.4312 45.5707 38.4265 45.6407 38.4172 45.706C38.4078 45.7713 38.3938 45.8273 38.3752 45.874C38.3565 45.9113 38.3285 45.944 38.2912 45.972C38.2538 45.9907 38.2072 46 38.1512 46ZM39.8424 46V35.962H40.9344V46H39.8424ZM38.1484 46V45.006H39.8424V46H38.1484ZM38.1484 46C38.0924 46 38.0458 45.9907 38.0084 45.972C37.9711 45.944 37.9431 45.9113 37.9244 45.874C37.9058 45.8273 37.8918 45.7713 37.8824 45.706C37.8731 45.6407 37.8684 45.5707 37.8684 45.496C37.8684 45.3933 37.8778 45.3093 37.8964 45.244C37.9058 45.1693 37.9338 45.1133 37.9804 45.076C38.0178 45.0293 38.0738 45.006 38.1484 45.006V46ZM43.3479 46V35.962H44.4259V46H43.3479Z" fill="#221D05"/>
<defs>
<clipPath id="clip0_1_583">
<rect width="24" height="24" fill="white" transform="translate(16.9609 8)"/>
</clipPath>
</defs>
</svg>
