<svg width="57" height="53" viewBox="0 0 57 53" fill="none" xmlns="http://www.w3.org/2000/svg">
<g clip-path="url(#clip0_1_586)">
<path d="M21.3706 19.7121L21.3707 19.7121C21.5331 19.7247 23.5573 19.8633 25.947 19.0925C28.3148 18.3287 31.0388 16.6734 32.6712 13.1159L31.5272 12.5516L31.527 12.5515C31.3605 12.4688 31.2564 12.2977 31.2616 12.1102C31.2647 11.9242 31.3796 11.7561 31.5495 11.6841L31.5494 11.6841L31.5887 11.776L31.5497 11.684L21.3706 19.7121ZM21.3706 19.7121C21.1181 19.6927 20.9013 19.8708 20.8659 20.1187M21.3706 19.7121L20.8659 20.1187M20.8659 20.1187C20.8306 20.3653 20.9879 20.6012 21.2334 20.6543M20.8659 20.1187L21.2334 20.6543M21.2334 20.6543C22.626 20.9592 23.8858 21.1 25.0318 21.1M21.2334 20.6543L25.0318 21.1M25.0318 21.1C27.7485 21.1 29.8141 20.3146 31.4504 19.1098M25.0318 21.1L31.4504 19.1098M31.4504 19.1098C33.0563 17.9273 34.2441 16.3442 35.2289 14.7159M31.4504 19.1098L35.2289 14.7159M35.2289 14.7159L36.3435 15.3911L35.2289 14.7159ZM36.8548 15.3771C36.8549 15.377 36.855 15.3769 36.8551 15.3768L36.7979 15.2948L36.8544 15.3773C36.8546 15.3772 36.8547 15.3772 36.8548 15.3771ZM33.7231 13.075C33.8214 12.8429 33.7204 12.5725 33.4955 12.4617C33.4955 12.4617 33.4955 12.4617 33.4955 12.4617L32.8749 12.1559L35.4504 11.0531L35.9494 14.0368L35.3126 13.6504C35.3124 13.6503 35.3123 13.6502 35.3121 13.6501C35.2048 13.5835 35.073 13.5639 34.9512 13.597C34.8271 13.628 34.723 13.7089 34.6602 13.819L34.7471 13.8685L34.6607 13.8182C33.6626 15.5308 32.5155 17.1385 30.959 18.3052C29.58 19.3389 27.8751 20.0298 25.6581 20.1351C28.4424 19.3604 31.8765 17.4977 33.7231 13.075Z" fill="#090909" stroke="#090909" stroke-width="0.2"/>
<path d="M23.1492 25C22.4842 25 21.9609 25.7033 21.9609 26.5987V29.4013C21.9609 30.2988 22.4822 31 23.1492 31H24.7727C25.4397 31 25.9609 30.2967 25.9609 29.4013V26.5987C25.9609 25.7012 25.4397 25 24.7727 25H23.1492ZM25.27 26.5987V29.4013C25.27 29.8565 25.0383 30.2557 24.7727 30.2557H23.1492C22.8836 30.2557 22.6519 29.8565 22.6519 29.4013V26.5987C22.6519 26.1435 22.8836 25.7443 23.1492 25.7443H24.7727C25.0383 25.7443 25.27 26.1435 25.27 26.5987Z" fill="#090909" stroke="#090909" stroke-width="0.2"/>
<path d="M28.1492 22C27.4842 22 26.9609 22.7337 26.9609 23.6677V29.3323C26.9609 30.2686 27.4822 31 28.1492 31H29.7727C30.4377 31 30.9609 30.2663 30.9609 29.3323V23.6677C30.9609 22.7314 30.4397 22 29.7727 22H28.1492ZM30.27 23.6677V29.3323C30.27 29.8072 30.0383 30.2236 29.7727 30.2236H28.1492C27.8836 30.2236 27.6519 29.8072 27.6519 29.3323V23.6677C27.6519 23.1928 27.8836 22.7764 28.1492 22.7764H29.7727C30.0363 22.7764 30.27 23.1928 30.27 23.6677Z" fill="#090909" stroke="#090909" stroke-width="0.2"/>
<path d="M34.7727 19H33.1492C32.4842 19 31.9609 19.7164 31.9609 20.6283V29.3717C31.9609 30.2858 32.4822 31 33.1492 31H34.7727C35.4377 31 35.9609 30.2836 35.9609 29.3717V20.6283C35.9609 19.7164 35.4397 19 34.7727 19ZM35.27 29.3717C35.27 29.8354 35.0383 30.2419 34.7727 30.2419H33.1492C32.8836 30.2419 32.6519 29.8354 32.6519 29.3717V20.6283C32.6519 20.1646 32.8836 19.7581 33.1492 19.7581H34.7727C35.0383 19.7581 35.27 20.1646 35.27 20.6283V29.3717Z" fill="#090909" stroke="#090909" stroke-width="0.2"/>
</g>
<path d="M8.57016 49.472C8.02882 49.472 7.52482 49.3927 7.05816 49.234C6.59149 49.0847 6.18082 48.87 5.82616 48.59C5.48082 48.3193 5.21016 47.9927 5.01416 47.61C4.81816 47.2273 4.72016 46.8073 4.72016 46.35C4.72016 46.1633 4.73416 45.916 4.76216 45.608C4.79949 45.3 4.84149 44.9547 4.88816 44.572C4.94416 44.18 5.00482 43.7833 5.07016 43.382L6.14816 43.536C6.04549 44.1613 5.96149 44.7307 5.89616 45.244C5.84016 45.7573 5.81216 46.1213 5.81216 46.336C5.81216 46.756 5.92882 47.1247 6.16216 47.442C6.39549 47.7687 6.71749 48.0207 7.12816 48.198C7.54816 48.3847 8.02882 48.478 8.57016 48.478H12.5322C13.2415 48.478 13.7782 48.282 14.1422 47.89C14.5155 47.498 14.7022 46.924 14.7022 46.168V45.706H15.7802V46.182C15.7802 46.826 15.6542 47.3953 15.4022 47.89C15.1502 48.3847 14.7815 48.772 14.2962 49.052C13.8202 49.332 13.2322 49.472 12.5322 49.472H8.57016ZM13.8902 46C13.5728 46 13.2508 45.9673 12.9242 45.902C12.6068 45.8367 12.2895 45.7013 11.9722 45.496L12.5882 44.67C12.7188 44.754 12.8448 44.824 12.9662 44.88C13.0875 44.9267 13.2228 44.9593 13.3722 44.978C13.5215 44.9967 13.6942 45.006 13.8902 45.006H16.5362V46H13.8902ZM16.5362 46V45.006C16.5922 45.006 16.6388 45.02 16.6762 45.048C16.7135 45.0667 16.7415 45.0993 16.7602 45.146C16.7788 45.1833 16.7928 45.2347 16.8022 45.3C16.8115 45.356 16.8162 45.4213 16.8162 45.496C16.8162 45.5707 16.8115 45.6407 16.8022 45.706C16.7928 45.7713 16.7788 45.8273 16.7602 45.874C16.7415 45.9113 16.7135 45.944 16.6762 45.972C16.6388 45.9907 16.5922 46 16.5362 46ZM8.75216 52.02V50.76H9.84416V52.02H8.75216ZM10.6702 52.02V50.76H11.7622V52.02H10.6702ZM16.5332 46V45.006H18.5492L18.0452 45.412V39H19.1372V46H16.5332ZM16.5332 46C16.4772 46 16.4305 45.9907 16.3932 45.972C16.3559 45.944 16.3279 45.9113 16.3092 45.874C16.2905 45.8273 16.2765 45.7713 16.2672 45.706C16.2579 45.6407 16.2532 45.5707 16.2532 45.496C16.2532 45.3933 16.2625 45.3093 16.2812 45.244C16.2905 45.1693 16.3185 45.1133 16.3652 45.076C16.4025 45.0293 16.4585 45.006 16.5332 45.006V46ZM17.0932 37.74V36.48H18.1852V37.74H17.0932ZM19.0112 37.74V36.48H20.1032V37.74H19.0112ZM22.6876 46V45.006H24.3956V46H22.6876ZM21.6096 46V35.962H22.6876V46H21.6096ZM24.3956 46V45.006C24.4516 45.006 24.4983 45.02 24.5356 45.048C24.573 45.0667 24.601 45.0993 24.6196 45.146C24.6383 45.1833 24.6523 45.2347 24.6616 45.3C24.671 45.356 24.6756 45.4213 24.6756 45.496C24.6756 45.5707 24.671 45.6407 24.6616 45.706C24.6523 45.7713 24.6383 45.8273 24.6196 45.874C24.601 45.9113 24.573 45.944 24.5356 45.972C24.4983 45.9907 24.4516 46 24.3956 46ZM31.8285 46V45.006H33.3405V46H31.8285ZM24.3945 46C24.3385 46 24.2919 45.9907 24.2545 45.972C24.2172 45.944 24.1892 45.9113 24.1705 45.874C24.1519 45.8273 24.1379 45.7713 24.1285 45.706C24.1192 45.6407 24.1145 45.5707 24.1145 45.496C24.1145 45.3933 24.1239 45.3093 24.1425 45.244C24.1519 45.1693 24.1799 45.1133 24.2265 45.076C24.2639 45.0293 24.3199 45.006 24.3945 45.006V46ZM24.3945 46V45.006H31.4645L30.7365 45.636V39.518L31.3105 39.994H28.9305C28.3892 39.994 27.9692 40.0593 27.6705 40.19C27.3812 40.3207 27.1805 40.568 27.0685 40.932C26.9565 41.2867 26.9005 41.8093 26.9005 42.5C26.9005 43.1907 26.9565 43.718 27.0685 44.082C27.1805 44.4367 27.3812 44.6793 27.6705 44.81C27.9692 44.9407 28.3892 45.006 28.9305 45.006V45.72C28.1185 45.72 27.4839 45.622 27.0265 45.426C26.5785 45.2207 26.2612 44.8847 26.0745 44.418C25.8972 43.942 25.8085 43.3027 25.8085 42.5C25.8085 41.6973 25.8972 41.0393 26.0745 40.526C26.2612 40.0033 26.5785 39.6207 27.0265 39.378C27.4839 39.126 28.1185 39 28.9305 39H31.8285V46H24.3945ZM33.3405 46V45.006C33.3965 45.006 33.4432 45.02 33.4805 45.048C33.5179 45.0667 33.5459 45.0993 33.5645 45.146C33.5832 45.1833 33.5972 45.2347 33.6065 45.3C33.6159 45.356 33.6205 45.4213 33.6205 45.496C33.6205 45.5707 33.6159 45.6407 33.6065 45.706C33.5972 45.7713 33.5832 45.8273 33.5645 45.874C33.5459 45.9113 33.5179 45.944 33.4805 45.972C33.4432 45.9907 33.3965 46 33.3405 46ZM27.6425 37.74V36.48H28.7345V37.74H27.6425ZM29.5605 37.74V36.48H30.6525V37.74H29.5605ZM40.7699 46V45.006H42.2819V46H40.7699ZM33.3359 46C33.2799 46 33.2333 45.9907 33.1959 45.972C33.1586 45.944 33.1306 45.9113 33.1119 45.874C33.0933 45.8273 33.0793 45.7713 33.0699 45.706C33.0606 45.6407 33.0559 45.5707 33.0559 45.496C33.0559 45.3933 33.0653 45.3093 33.0839 45.244C33.0933 45.1693 33.1213 45.1133 33.1679 45.076C33.2053 45.0293 33.2613 45.006 33.3359 45.006V46ZM33.3359 46V45.006H40.4059L39.6779 45.636V39.518L40.2519 39.994H37.8719C37.3306 39.994 36.9106 40.0593 36.6119 40.19C36.3226 40.3207 36.1219 40.568 36.0099 40.932C35.8979 41.2867 35.8419 41.8093 35.8419 42.5C35.8419 43.1907 35.8979 43.718 36.0099 44.082C36.1219 44.4367 36.3226 44.6793 36.6119 44.81C36.9106 44.9407 37.3306 45.006 37.8719 45.006V45.72C37.0599 45.72 36.4253 45.622 35.9679 45.426C35.5199 45.2207 35.2026 44.8847 35.0159 44.418C34.8386 43.942 34.7499 43.3027 34.7499 42.5C34.7499 41.6973 34.8386 41.0393 35.0159 40.526C35.2026 40.0033 35.5199 39.6207 35.9679 39.378C36.4253 39.126 37.0599 39 37.8719 39H40.7699V46H33.3359ZM42.2819 46V45.006C42.3379 45.006 42.3846 45.02 42.4219 45.048C42.4593 45.0667 42.4873 45.0993 42.5059 45.146C42.5246 45.1833 42.5386 45.2347 42.5479 45.3C42.5573 45.356 42.5619 45.4213 42.5619 45.496C42.5619 45.5707 42.5573 45.6407 42.5479 45.706C42.5386 45.7713 42.5246 45.8273 42.5059 45.874C42.4873 45.9113 42.4593 45.944 42.4219 45.972C42.3846 45.9907 42.3379 46 42.2819 46ZM37.5359 37.74V36.48H38.6279V37.74H37.5359ZM42.2773 46V45.006H52.6233L51.6153 45.916V42.626C51.6153 42.038 51.5313 41.5527 51.3633 41.17C51.2047 40.778 50.962 40.484 50.6353 40.288C50.318 40.092 49.9167 39.994 49.4313 39.994C49.0207 39.994 48.638 40.064 48.2833 40.204C47.938 40.3347 47.616 40.512 47.3173 40.736C47.0187 40.9507 46.7387 41.1933 46.4773 41.464C46.2253 41.7253 45.992 41.9913 45.7773 42.262C45.5627 42.5327 45.3667 42.78 45.1893 43.004L44.8393 42.01C45.0727 41.7207 45.306 41.4313 45.5393 41.142C45.782 40.8527 46.034 40.582 46.2953 40.33C46.5567 40.0687 46.8413 39.84 47.1493 39.644C47.4667 39.448 47.812 39.294 48.1853 39.182C48.5587 39.0607 48.9787 39 49.4453 39C50.108 39 50.6493 39.112 51.0693 39.336C51.4987 39.56 51.83 39.8587 52.0633 40.232C52.306 40.596 52.474 40.988 52.5673 41.408C52.6607 41.828 52.7073 42.234 52.7073 42.626V46H42.2773ZM44.2653 45.006V39H45.3573V45.006H44.2653ZM42.2773 46C42.2213 46 42.1747 45.9907 42.1373 45.972C42.1 45.944 42.072 45.9113 42.0533 45.874C42.0347 45.8273 42.0207 45.7713 42.0113 45.706C42.002 45.6407 41.9973 45.5707 41.9973 45.496C41.9973 45.3933 42.0067 45.3093 42.0253 45.244C42.0347 45.1693 42.0627 45.1133 42.1093 45.076C42.1467 45.0293 42.2027 45.006 42.2773 45.006V46Z" fill="#221D05"/>
<defs>
<clipPath id="clip0_1_586">
<rect width="18" height="24" fill="white" transform="translate(19.9609 8)"/>
</clipPath>
</defs>
</svg>
